<?xml version="1.0" standalone="no"?>
<!DOCTYPE svg PUBLIC "-//W3C//DTD SVG 1.1//EN" "http://www.w3.org/Graphics/SVG/1.1/DTD/svg11.dtd" >
<svg xmlns="http://www.w3.org/2000/svg">
<metadata>
This is a custom SVG webfont generated by Font Squirrel.
Copyright   :  Bright Ideas
</metadata>
<defs>
<font id="webfontDCp00RGA" horiz-adv-x="1413" >
<font-face units-per-em="2048" ascent="1638" descent="-410" />
<missing-glyph horiz-adv-x="737" />
<glyph unicode=" "  horiz-adv-x="737" />
<glyph unicode="&#x09;" horiz-adv-x="737" />
<glyph unicode="&#xa0;" horiz-adv-x="737" />
<glyph unicode="!" horiz-adv-x="583" d="M498 1124l-86 -6l-66 -788l-135 8l-27 766l-90 -6l-4 43l92 6l-2 86l-86 -6l-4 43l88 6l-6 223l270 -33l-14 -174l66 4l4 -43l-74 -4l-8 -86l78 4zM496 975l-47 -498l-43 4l47 500zM455 88q0 -68 -49.5 -117t-118.5 -49q-68 0 -117 49t-49 117t49 118t117 50 q70 0 119 -50t49 -118zM412 88q0 51 -37 88t-88 37t-87 -37t-36 -88t36 -87t87 -36q53 0 89 36t36 87zM332 84q0 -39 -37 -39q-39 0 -39 39t39 39q37 0 37 -39z" />
<glyph unicode="&#x22;" horiz-adv-x="655" d="M590 1450l-74 -532l-98 -9l-41 525zM319 1450l-73 -532l-99 -9l-41 525z" />
<glyph unicode="#" horiz-adv-x="1167" d="M1112 1006l-12 -93h-260l-76 -290l248 2l-21 -123h-258l-133 -498l-94 -12l137 510h-211l-133 -498l-125 -12l137 510h-237l37 116l231 3l78 292h-238l31 86l231 2l119 443l115 -6l-115 -437l213 3l119 440l84 -6l-115 -434zM752 913h-213l-76 -292l211 2z" />
<glyph unicode="$" horiz-adv-x="995" d="M895 449q0 -145 -106.5 -248t-256.5 -113v-197l-36 -12v207q-18 0 -29 2v-199l-37 -12v215q-94 18 -307 137l65 136l121 -70q70 -37 121 -49v473q-113 45 -160 86q-61 55 -80 125q-14 49 -14 151q0 98 80 191.5t174 103.5v234l39 -6v-226q18 0 27 -2v236l39 -6v-236 q152 -29 210 -135l-127 -80q-25 43 -83 62v-388q195 -74 241 -110q119 -90 119 -270zM496 844v381q-8 2 -27 2v-373q4 -2 13.5 -5t13.5 -5zM430 874v351q-39 -12 -70.5 -56.5t-31.5 -87.5q0 -76 6 -100q8 -39 39 -66q24 -21 57 -41zM743 449q0 96 -61 155q-47 43 -150 80 q2 -121 0 -444q90 10 150.5 67.5t60.5 141.5zM496 238v458q-8 4 -29 11q2 -127 0 -467q11 -2 29 -2z" />
<glyph unicode="%" horiz-adv-x="1818" d="M1696 459q18 -49 18 -103q0 -133 -103.5 -247.5t-236.5 -114.5q-115 0 -226.5 82t-143.5 178q-20 55 -21 119q0 137 82 250q90 127 223 127q119 0 243 -90t165 -201zM1397 1335l-881 -1388l-96 78l876 1368zM913 1161l-100 -47q12 -61 12 -125q0 -102 -32 -176 q-43 -92 -138.5 -145.5t-203.5 -53.5q-106 0 -188.5 48.5t-127.5 154.5q-41 96 -41 205q0 90 29 154q47 102 157.5 168.5t227.5 66.5q63 0 117 -22q86 -35 141 -142l90 41l16 -37l-90 -41q10 -18 21 -55l94 43zM1581 414q-31 80 -113 145q-88 70 -168 70q-88 0 -145 -84 q-51 -76 -51 -166q0 -45 14 -84q23 -66 97.5 -122t150.5 -56q86 0 156.5 73.5t70.5 161.5q0 31 -12 62zM741 1083l-82 -36l-16 36l88 39l-18 58l-95 -43l-16 37l92 40q-66 115 -194 115q-92 0 -178 -53t-125 -135q-25 -53 -25 -129q0 -203 129 -279q68 -39 154 -39 q84 0 157.5 40t106.5 112q45 100 22 237z" />
<glyph unicode="&#x26;" horiz-adv-x="1507" d="M1477 106l-111 -118q-57 51 -334 260q-123 -141 -299 -219q-160 -72 -321 -72q-137 0 -224 82q-92 88 -92 250q0 154 101 274q72 86 239 197q-174 178 -174 362q0 102 72 174l69 70q88 88 234 88q90 0 162 -59q82 -66 82 -162q0 -106 -70 -234q-72 -133 -184 -219 q8 -8 24 -20q166 -125 199 -152q111 -88 192 -170l2 -2q66 131 66 254q0 66 -22.5 114t-55.5 48q-57 0 -57 -37q0 -31 72 -61l-89 -88q-90 37 -90 116q0 53 35 99q51 63 150 63q66 0 123 -57q61 -63 61 -154q0 -176 -113 -360q55 -39 170 -127q64 -42 183 -140zM739 1163 q0 72 -53 119t-119 47q-121 0 -148.5 -41t-27.5 -96q0 -180 168 -352q180 130 180 323zM954 307q-72 72 -196 176l-203 168l-51 45q-90 -66 -131 -100l301 -473q161 61 280 184zM637 109l-293 460q-10 -8 -27 -28l283 -443q6 2 18.5 5.5t18.5 5.5zM559 90l-266 420 q-4 -4 -21 -33l250 -391q6 2 18.5 3t18.5 1zM477 84l-223 352q-16 -45 -16 -90q0 -137 56 -198.5t183 -63.5zM641 1112q0 -66 -66 -65q-66 0 -65 65q0 66 65 66q66 0 66 -66z" />
<glyph unicode="'" horiz-adv-x="401" d="M319 1450l-73 -532l-99 -9l-41 525z" />
<glyph unicode="(" horiz-adv-x="577" d="M522 1370q-272 -309 -272 -700q0 -453 248 -799l-68 -80q-332 393 -332 866q0 469 363 824z" />
<glyph unicode=")" horiz-adv-x="540" d="M473 610q0 -469 -362 -823l-62 111q272 309 273 700q0 453 -248 799l67 80q332 -394 332 -867z" />
<glyph unicode="*" horiz-adv-x="645" d="M549 1114l-160 29l133 -142l-151 -86l-56 187l-77 -174l-134 100l148 123l-166 16l45 166l148 -90l-21 189l176 -9l-67 -186l149 63z" />
<glyph unicode="+" horiz-adv-x="829" d="M762 610l-244 -6l4 -334l-196 21l6 307l-254 -6l20 196l238 -4l8 310h168l4 -312l246 -4v-168z" />
<glyph unicode="," horiz-adv-x="624" d="M453 41q0 -147 -187 -334l-69 -69l-56 57q137 141 138 285q0 109 -70 145l156 123q88 -57 88 -207z" />
<glyph unicode="-" horiz-adv-x="829" d="M729 778l-4 -209l-623 -18l25 237z" />
<glyph unicode="." horiz-adv-x="559" d="M424 117q0 -57 -41 -98.5t-98 -41.5t-98.5 41t-41.5 99q0 57 41 98t99 41q57 0 98 -41t41 -98z" />
<glyph unicode="/" horiz-adv-x="983" d="M987 1413l-866 -1515l-111 55l881 1528z" />
<glyph unicode="0" horiz-adv-x="1427" d="M1284 328q-72 -158 -237 -248q-156 -86 -345 -86q-182 0 -327 84q-137 80 -213 258q-70 162 -70 348q0 162 53 274q84 178 270.5 292t385.5 114q109 0 200 -37q160 -66 256 -268q88 -188 89 -414q-1 -184 -62 -317zM1079 1081q-129 172 -311 172q-39 0 -76 -8 q-201 -45 -330 -168q-143 -139 -143 -332q0 -49 10 -120zM1137 989q-14 31 -39 68l-862 -473q2 -10 7 -31t7 -31zM1180 879q-8 25 -25 69l-895 -465q8 -23 25 -63zM1214 637q2 106 -24 209l-885 -467q106 -205 297 -246q51 -10 105 -10q203 0 354 146.5t153 367.5z" />
<glyph unicode="1" horiz-adv-x="710" d="M586 1407l-13 -1432l-43 7l7 1419zM494 -43l-148 12l4 1157q-68 -76 -139 -77q-59 -2 -100 27.5t-41 90.5q0 92 77 113q25 6 41.5 -7t16.5 -32q0 -25 -29 -33q-20 -6 -20 -41q0 -41 59 -24q70 20 109 88q29 53 28 112v89l142 6v-1481z" />
<glyph unicode="2" horiz-adv-x="1374" d="M1380 164l-104 -105q-51 254 -186 416q-47 -180 -181 -307q-190 -182 -471 -182q-150 0 -252 95t-102 241q0 170 115 284l69 70q141 141 375 141q180 0 332 -74q-4 164 -86 342q-51 111 -162 179q-117 72 -266 71q-59 0 -107 -24q-27 -45 -26 -109q0 -43 20.5 -77.5 t52.5 -34.5q25 16 25 61q0 18 -8 31l49 63q16 -18 30.5 -37.5t14.5 -52.5t-35 -74l-55 -63q-20 -29 -68 -29q-51 0 -93 44t-42 100q0 111 66 176l69 69q66 66 176 66q164 0 289 -80q117 -72 174 -195q127 -276 127 -428q0 -61 -2 -92q201 -172 262 -485zM967 590 q-168 117 -394 117q-154 0 -297 -109q-82 -109 -81 -207q0 -127 78.5 -199.5t209.5 -72.5q186 0 328 133q125 117 156 338zM801 578q25 -45 -19 -68q-45 -25 -67 18q-25 45 18 68q45 25 68 -18zM590 604q23 -41 -17 -63q-41 -25 -65 14q-25 39 16 66q41 26 66 -17zM424 518 q23 -41 -16 -63q-41 -25 -66 14t16 66q41 26 66 -17zM365 354q20 -45 -25 -65q-27 -12 -50.5 3t-23.5 42q0 51 51 51q34 0 48 -31z" />
<glyph unicode="3" horiz-adv-x="1028" d="M967 604q0 -82 -56 -155q-127 -170 -419 -347q-182 -111 -437 -190l11 139q254 72 471 213q305 197 305 285q0 106 -113 164q-84 43 -250 63l-248 27l490 491l-64 -2l-415 -420l-29 17l397 401l-491 -20l8 151l754 13l20 -111l-385 -436q248 -43 303 -68 q148 -63 148 -215z" />
<glyph unicode="4" horiz-adv-x="1007" d="M991 391l-176 -14q-8 -70 -22 -164l4 -258l-174 -4l12 151l24 263l-577 -48q-12 45 -12 70q2 115 59 238q18 39 141 206q88 119 88 218q0 70 -39.5 116.5t-107.5 46.5q-4 0 -14 -10q-12 -29 -13 -65q0 -35 27 -47q31 -14 72 63q27 -47 6 -70l-70 -71q-27 -27 -67 -27 q-70 0 -70 76q0 88 55 145l74 76q31 31 76 31q80 0 137 -58.5t57 -138.5q0 -106 -78 -256l-127 -229q-18 -35 -28 -125l426 20q6 86 6 162v84q-2 66 -2 107q0 442 12 559l150 53q-8 -129 -9 -492q0 -43 3.5 -112.5t3.5 -85.5q0 -143 -9 -266l134 6l-5 -45l-133 -9 q0 -8 -1 -25.5t-3 -25.5l170 10v-55zM670 479l-426 -22q0 -29 8 -56l414 25q0 20 4 53z" />
<glyph unicode="5" horiz-adv-x="1167" d="M1075 584q0 -367 -186 -512q-137 -109 -404 -109q-184 0 -309 158q-119 147 -119 344q0 51 11 100l141 6q-10 -49 -10 -114q0 -156 57 -258q76 -137 242 -138q229 0 350 148q111 137 110 375q0 172 -147 282q-143 104 -356 105q-123 0 -246 -37l74 498l694 6v-117 l-608 -18l-9 -46l590 17l4 -37q-301 -10 -602 -25l-26 -143q152 25 243 25q506 0 506 -510zM637 555q0 -33 -22.5 -54.5t-55.5 -21.5t-55.5 21.5t-22.5 54.5t22.5 55.5t55.5 22.5t55.5 -22.5t22.5 -55.5z" />
<glyph unicode="6" horiz-adv-x="1007" d="M498 1145q-219 -219 -219 -522h-41q0 322 231 551zM942 385q10 -152 -53 -256q-104 -172 -389 -176q-53 0 -120 24.5t-97 55.5q-221 221 -209 583q14 420 270 668q162 156 330 156q113 0 182.5 -57.5t69.5 -163.5t-47.5 -173t-151.5 -67q-47 0 -78 35t-31 67q0 86 84 133 l33 -24q-33 -49 -33 -66q0 -61 62 -61q31 0 45 23.5t14 80.5q0 170 -153 170q-18 0 -39 -2q-72 -10 -180 -100q-133 -113 -195.5 -266.5t-65.5 -352.5q-2 -123 33 -237q16 94 78 170q57 70 143 110q76 37 144 37q133 0 235 -84q111 -90 119 -227zM815 332q0 106 -74.5 166.5 t-179.5 50.5q-88 -8 -155 -78q-76 -80 -76 -182q0 -121 80 -197q43 -18 141 -20q139 -4 211 98q53 74 53 162zM616 307q0 -61 -57 -61q-61 0 -61 57q0 61 57 62q61 -1 61 -58z" />
<glyph unicode="7" horiz-adv-x="749" d="M774 1413l-180 -614l-127 -4l135 479l-586 -8l-20 151zM631 762l-25 -33h-180l12 33h193zM627 692l-13 -37h-225l4 37h234zM565 614l-123 -618h-204l172 622z" />
<glyph unicode="8" horiz-adv-x="1056" d="M977 1040q0 -154 -71.5 -265t-196.5 -157q221 -68 221 -329q0 -166 -129 -250q-115 -76 -309 -76q-127 0 -217.5 104.5t-90.5 247.5q0 94 72 177q66 76 166 114q-129 35 -236.5 150.5t-107.5 279.5q0 53 8 121q18 160 140 255t290 95q203 0 332 -131t129 -336zM817 1243 q-92 168 -274 168q-162 0 -252 -117q-84 -109 -74 -274zM850 1169q-6 14 -14 39l-615 -221v-2q2 -18 10 -51zM864 1096q0 8 -2 21t-4 20l-614 -234q12 -25 20 -37zM872 1010q0 35 -2 51l-585 -223q102 -129 299 -129q127 0 207.5 84t80.5 217zM817 322q0 104 -70.5 173.5 t-173.5 73.5q-96 4 -189 -65.5t-97 -145.5q-8 -119 58.5 -202.5t158.5 -83.5q129 0 221 67.5t92 182.5z" />
<glyph unicode="9" horiz-adv-x="974" d="M965 477l-15 -65l-53 -2v-88l59 -5l-2 -51l-55 -4v-270l-184 12l8 258h-111l4 60l107 2v88l-111 2l2 59l111 4l6 254q-106 -80 -278 -80q-188 0 -293 102.5t-105 280.5q0 33 4 68q18 178 197 278q147 82 283 66q133 -14 215 -90l2 45h133l8 -924h68zM752 1257 q-94 94 -226 95q-123 0 -219 -60q-117 -74 -133 -215q-2 -20 -2 -39q0 -135 100 -213q86 -68 201 -67q178 0 266 78z" />
<glyph unicode=":" horiz-adv-x="624" d="M467 770q0 -57 -41 -98t-98 -41t-98.5 41t-41.5 98t41 98t99 41q57 0 98 -41t41 -98zM442 111q0 -51 -36.5 -89t-90.5 -38q-51 0 -89 37.5t-38 89.5q0 53 38 90t89 37q53 0 90 -37t37 -90z" />
<glyph unicode=";" horiz-adv-x="624" d="M467 770q0 -57 -41 -98t-98 -41t-98.5 41t-41.5 98t41 98t99 41q57 0 98 -41t41 -98zM453 41q0 -147 -187 -334l-69 -69l-56 57q137 141 138 285q0 109 -70 145l156 123q88 -57 88 -207z" />
<glyph unicode="&#x3c;" horiz-adv-x="786" d="M680 408l-105 -154l-450 391v86l426 383l123 -135l-359 -291z" />
<glyph unicode="=" horiz-adv-x="872" d="M778 696l-684 -18l21 176l663 -10v-148zM774 426l-692 -6l12 151l680 2v-147z" />
<glyph unicode="&#x3e;" horiz-adv-x="786" d="M674 645l-451 -391l-104 154l364 280l-358 291l123 135l426 -383v-86z" />
<glyph unicode="?" horiz-adv-x="956" d="M680 1001l-41 5q16 193 -162 260l12 41q211 -79 191 -306zM872 1112q8 -223 -139 -328q-59 -41 -217 -84q2 -66 6 -139l88 4v-41l-84 -4l6 -55l74 2v-41l-67 -2l6 -55l-180 -27v39l-3 37l-83 -4v41l81 2q0 20 -4 57l-73 -2v41l71 2q0 8 -2 108.5t-2 106.5q190 35 277 96 q39 35 77.5 75t38.5 97q0 133 -85 227.5t-209 94.5q-111 0 -166.5 -60.5t-55.5 -142.5q0 -125 64 -125q37 0 41 17q4 16 -25 55l70 65q53 -47 49 -82q-6 -55 -37 -88l-41 -43q-47 -49 -135 -49q-51 0 -81 53.5t-30 118.5q0 156 80 234l80 78q96 94 266 94 q139 0 238.5 -109.5t105.5 -263.5zM588 104q0 -57 -41 -99t-101 -42q-57 0 -99 42t-42 99q0 59 42 100.5t99 41.5q59 0 100.5 -41.5t41.5 -100.5zM496 131q0 45 -45 45t-45 -45t45 -45t45 45z" />
<glyph unicode="@" horiz-adv-x="1452" d="M1382 854q0 -252 -168 -399q-127 -111 -245 -111q-63 0 -80 115q-27 -39 -93.5 -70t-129.5 -31q-184 0 -185 172q0 63 49 134q70 98 197 98q92 0 160 -47q-31 231 -148 231q-61 0 -114 -53l-27 35q25 43 84 68.5t109 23.5q106 -6 161 -115q49 -92 49 -229q0 -25 -3 -64 t-3 -61q0 -8 -2 -45q-2 -33 0 -47q2 -23 11 -25q76 0 170 92q127 123 126 328q0 211 -126 336q-133 133 -373 133q-260 0 -441 -180q-188 -190 -188 -486q0 -285 172 -454q158 -156 395 -156q276 0 451 117l45 -70q-197 -129 -496 -129q-270 0 -452 178q-197 190 -197 514 q0 332 215 545q203 203 496 203q281 0 436 -156q145 -147 145 -395zM891 596q-47 66 -111 84l-10 -238q74 27 117 74q0 27 4 80zM754 684q-4 0 -13 2h-14l-12 -254q6 0 14 2h14zM700 688h-2q-14 0 -26 -6l-13 -248q18 0 31 -2q6 129 10 256zM641 670q-88 -47 -88 -127 q0 -82 82 -103q4 115 6 230z" />
<glyph unicode="A" horiz-adv-x="933" d="M842 1047q11 -116 11 -281q0 -110 -5 -242q-10 -293 -37 -536l-172 12l27 418l-390 -23q12 -134 13 -252q0 -96 -8 -182q-18 -201 -113 -305q-82 -92 -205 -92q-61 0 -105 55t-44 125q0 84 49 131l41 39q33 31 69 31q68 0 93 -107l-62 -57q-8 74 -43 74q-23 0 -22 -39 q0 -47 27.5 -87t68.5 -40t67 14q31 59 52 215q3 23 2 67q0 87 -11 255q-31 457 -30 497q0 434 131 566l71 71q76 76 197 76q139 0 229 -123q83 -110 99 -280zM688 938q-35 387 -246 387q-31 0 -63 -20l-51 -33q-88 -141 -88 -463q0 -80 16 -207l422 23q11 225 11 289 q0 19 -1 24zM674 584q-207 -10 -414 -25q0 -14 4 -43l408 23q2 16 2 45zM670 498l-402 -23q4 -29 4 -39l396 23q0 6 2 20v19zM528 1202q14 -25 2 -49q-14 -25 -43 -25q-27 0 -41 21q-11 16 -11 30q0 21 26 38q17 10 31 10q21 0 36 -25zM608 1018q10 -27 -5 -49.5t-42 -22.5 q-51 0 -51 51t51 52q35 0 47 -31zM631 813q2 -9 1 -17q0 -44 -48 -53q-11 -2 -20 -2q-43 0 -52 47q-2 11 -2 20q0 44 49 52q11 2 20 2q44 0 52 -49z" />
<glyph unicode="B" d="M1079 555l-37 -12q-84 236 -409 284l4 41q102 -16 184 -51q197 -88 258 -262zM1286 485q0 -262 -192 -428q-154 -131 -326 -131q-334 0 -334 271q0 96 66 161l80 80q55 55 129 56q141 0 141 -134q0 -53 -29 -84l-76 -81l-30 26q0 2 16 23q10 12 10 26q0 45 -30.5 74 t-77.5 29q-14 0 -39 -4q-10 -35 -10 -64q0 -231 293 -231q84 0 141 35q20 29 69 120q45 84 52 236v11q0 92 -64 207q-68 122 -212 191.5t-328 69.5q-84 0 -132 4l146 146q199 0 348 90q-6 88 -168 119q-92 16 -280 16q-59 0 -89 -2q-6 -186 -14 -561q0 -180 -10 -533 l-12 -246l-166 -4l12 146q25 311 35 573q8 219 8 608q-90 -20 -139 -57l-27 31l109 110q113 84 401 84q494 0 494 -192q0 -70 -35 -107q-14 -16 -88 -63q-45 -16 -99 -41q-4 -4 -4 -6q281 -74 379 -254q43 -78 51 -100q31 -87 31 -220z" />
<glyph unicode="C" d="M958 784q25 -31 25 -69q0 -53 -43 -88q-31 -25 -72 -25q-55 0 -90 43q-25 31 -24 70q0 55 45 90q31 25 69 24q55 0 90 -45zM1333 86l-192 -51q-143 -29 -363 -29q-291 0 -473 172q-213 199 -213 578q0 307 258 489q219 156 498 156q180 0 276 -31q82 -27 164 -98l-90 -92 q-80 49 -139 67q-80 25 -201 25q-109 0 -217 -31l23 -1087q66 -18 133 -19q182 0 319 23q18 2 191 39zM623 168l-23 1059q-20 -8 -61 -27l20 -1001q33 -19 64 -31zM518 225l-20 953q-33 -18 -58 -39l15 -860q40 -38 63 -54zM414 326l-15 776q-131 -131 -131 -346 q1 -254 146 -430z" />
<glyph unicode="D" horiz-adv-x="1224" d="M1159 827q0 -180 -88 -362q-182 -377 -682 -479q-88 -6 -250 -19q2 193 4 670l-84 2v55q39 0 84 -2v135q-23 2 -77 2l-13 56h90v112l-90 -2l6 56l82 4l-2 401q92 7 164.5 7t124.5 -7q344 -49 571 -276q160 -160 160 -353zM1010 719q0 176 -148 323q-227 227 -569 265 q0 -70 -4 -246l188 8l-6 -61l-182 -7q-2 -37 -2 -116h282l-6 -62l-278 4q0 -92 -2 -137q63 0 237 -2l-18 -61l-221 6q-4 -377 -9 -516h13q131 0 204 18q311 78 424 250q97 148 97 334z" />
<glyph unicode="E" horiz-adv-x="1187" d="M362 1350q-119 -82 -118 -211q0 -90 63 -187l-33 -20q-72 109 -71 209q0 150 139 245zM1116 434q0 -170 -96 -264l-102 -100q-106 -104 -318 -105q-164 0 -292 68.5t-179 181.5q-49 106 -49 229q0 197 121 316l102 100q41 41 92 68q-86 74 -86 200q0 74 60 136l100 102 q82 84 231 84q98 0 205 -68q115 -72 115 -153q0 -37 -23 -82l-102 -105l-33 23q16 37 17 63q0 70 -101 127q-92 51 -178 52q-80 0 -139 -27q-8 -33 -8 -51q0 -145 135 -211q72 -35 299 -78l-135 -135q-201 33 -238 33q-133 0 -227 -62q-63 -98 -64 -229q0 -131 45 -211 q47 -104 165 -168t267 -64q143 0 232 52q43 74 43 176q0 61 -37 103t-98 42h-9q-2 -6 -2 -16q0 -41 72 -80l-98 -94q-84 43 -84 110q0 61 51 111l70 65q47 45 100 45q80 0 128 -53t48 -131zM471 279l-25 -33q-133 113 -133 286q0 96 37 185l37 -17q-33 -80 -33 -165 q0 -156 117 -256z" />
<glyph unicode="F" horiz-adv-x="806" d="M748 1231l-328 -8l-29 -717l279 2v-86l-269 -8l-16 -422l-59 2l20 612h-55l-15 -618l-172 -13l37 1420l166 6l-10 -397h63l15 397l364 6zM360 963h-63l-2 -64h61zM356 858h-61l-2 -94h59zM350 723h-57l-2 -76h57z" />
<glyph unicode="G" horiz-adv-x="1290" d="M721 803q11 -17 11 -32q0 -22 -25 -40q-17 -11 -33 -11q-22 0 -39 25q-11 17 -12 33q0 22 26 39q17 11 32 12q23 0 40 -26zM1229 299q0 -276 -133 -405q-104 -102 -234 -119q-175 -24 -281 -24q-23 0 -42 1q-186 8 -365 96l131 132q182 -84 336 -84q129 0 320 22 q33 14 92 37q31 90 30 242v73l-86 -88q-160 -164 -475 -164q-182 0 -317 191q-125 176 -125 379q0 303 186 579q53 80 156 142q131 80 278 80q190 0 361 -119q70 -47 98 -92l-135 -134q-16 23 -86 84q-135 123 -291 123q-80 0 -149 -26q-90 -33 -152 -119 q-121 -168 -121 -416q0 -188 111 -352q121 -176 289 -176q233 0 364 114q39 35 72 127l-453 27v68l482 -45l79 92l-579 26v74l622 -53q17 -105 17 -293z" />
<glyph unicode="H" horiz-adv-x="1044" d="M946 1454l-16 -659l-811 -17l-13 615l132 37l4 -467l561 4l-17 467zM938 731l-20 -747l-156 -9l41 588l-557 -8l-4 -600l-140 -4l21 780h815zM803 934l-557 -12l-4 -41l557 8zM803 860l-570 -16v-29l566 16zM815 666v32l-561 -12l-4 -37zM815 633l-569 -8l-4 -33l565 8z " />
<glyph unicode="I" horiz-adv-x="471" d="M391 1440q0 -66 -46 -112t-112 -46t-111.5 46t-45.5 112t46 111.5t111 45.5q66 0 112 -45.5t46 -111.5zM356 1251l-12 -1251l-43 6l6 1239zM264 -18l-147 12l6 1266l141 6v-1284zM268 1440q0 35 -35 35t-34 -35q0 -35 34 -35q35 0 35 35z" />
<glyph unicode="J" horiz-adv-x="786" d="M694 1618q14 -23 15 -49q0 -51 -37 -76q-23 -14 -49 -14q-51 0 -76 37q-14 23 -15 49q0 51 37 75q23 14 49 15q51 0 76 -37zM705 1409l-9 -1073q0 -209 -14 -291q-29 -166 -131 -250q-90 -76 -250 -76q-119 0 -188.5 73t-69.5 185q0 88 67.5 174.5t170.5 86.5 q63 0 102 -43t39 -111q0 -49 -33 -86l-43 -47q-16 -18 -45 -19q-47 0 -80 45l49 56q18 -25 49 -17q1 11 1 22q0 104 -95 103q-14 0 -53 -16q-20 -37 -20 -76q0 -96 59 -158.5t162 -62.5q68 0 108 27q72 113 72 409q0 6 -2 166q-2 180 -4 318q-106 0 -338 -5l6 50h332v61 l-350 6v43q267 5 329 5q21 0 19 -1q-2 197 -6 389q-14 0 -98.5 4.5t-97.5 4.5t-54 3t-90 3l104 104q25 0 57.5 -2t49.5 -2h147q134 -2 148 -2z" />
<glyph unicode="K" horiz-adv-x="1284" d="M1294 188q0 -98 -84 -186q-94 -98 -227 -100h-3q-182 0 -509 278q-51 43 -207 228v-445l-147 12l2 605l-47 59l47 61l4 738l141 6v-553l326 424q76 98 213 104q5 0 9 1q58 0 114 -47q59 -50 59 -107q0 -98 -58.5 -153.5t-115.5 -55.5q-25 0 -51.5 21.5t-26.5 47.5 q0 33 17 62q6 10 38 35l33 -25q-10 -18 -10 -39q0 -29 35 -29t35 72q0 43 -36 78q-29 28 -67 28q-9 0 -18 -1q-66 -10 -150 -97l-346 -442v-164q109 -137 305 -319q104 -96 215 -174q141 -98 209 -99h88q45 6 82 31q27 53 27 86q0 164 -127 164q-18 0 -37 -12q-6 -8 -6 -19 q0 -33 27 -47q16 -8 71 -16l-67 -60q-111 16 -111 92q0 47 51 102.5t144 55.5q82 0 125 -67q34 -54 34 -134zM547 971l-180 -264l176 -220l-33 -24l-193 242l197 290z" />
<glyph unicode="L" horiz-adv-x="927" d="M899 324q0 -150 -107.5 -257.5t-222.5 -107.5q-55 0 -136 23.5t-140 23.5q-92 0 -217 -67l-21 28l72 70l37 711l-45 -3l-21 -354l-41 4l56 971l41 -4l-21 -369l43 2l25 473l178 31l-35 -493q43 2 152 10l-4 -45l-150 -10l-4 -52l141 4l-4 -41l-141 -6l-4 -67l145 4 l-4 -41l-145 -6l-45 -658q49 16 84 17q59 0 140 -24.5t136 -24.5q59 0 109 28q41 66 41 158q0 80 -56.5 126t-144.5 46q-12 0 -35 -16q-31 -20 -31 -48q0 -49 68 -49q8 0 20 4l41 39l27 -24q-6 -10 -25 -29l-55 -53q-27 -27 -63 -27q-43 0 -74 24.5t-31 61.5q0 90 45 144 q53 63 152 75q18 2 35 2q83 0 152 -49q83 -59 83 -155zM174 950l-45 -2q0 -12 -2 -47l45 2zM170 858l-45 -2l-4 -65l45 2z" />
<glyph unicode="M" horiz-adv-x="1554" d="M1319 1599q11 -17 11 -32q0 -22 -25 -39q-17 -11 -33 -12q-22 0 -39 26q-11 17 -12 32q0 22 26 40q17 11 32 11q23 0 40 -26zM1077 1608q11 -17 12 -32q0 -22 -26 -40q-17 -11 -32 -11q-22 0 -40 25q-11 17 -11 32q0 22 26 40q17 11 32 11q22 1 39 -25zM879 1499 q11 -17 11 -32q0 -22 -26 -40q-17 -11 -32 -11q-22 0 -39 26q-11 17 -12 32q0 22 26 39q17 11 32 12q23 0 40 -26zM1559 356q0 -178 -115 -278q-106 -92 -225 -92q-84 0 -158 106q-72 100 -76 201v49l-367 6q-6 -156 -126 -266q-127 -117 -273 -117q-82 0 -133 56.5 t-51 144.5q0 102 80 188q72 76 168 80h5q40 0 66 -30q29 -32 29 -82q0 -43 -39 -84l-63 -68l-41 33q45 76 45 84q0 50 -46 50q-6 0 -14 -1q-25 -4 -46 -40t-21 -63q0 -66 35.5 -106.5t93.5 -40.5q90 0 162 49q47 66 47 158q0 133 -72 268l-129 209q-80 135 -80 346 q0 135 84 227q94 102 227 103q205 0 303 -223q39 133 158 200q90 51 189 52q104 0 175.5 -79t71.5 -194q0 -147 -82 -315l-147 -269q-78 -146 -78 -254q0 -84 51 -167q53 -88 119 -88q59 0 109 28q41 66 41 152q0 82 -41 82q-29 0 -29 -45l8 -54l-61 -55l-43 62q0 84 45 151 q18 27 56 48.5t61 21.5q127 -1 127 -144zM1266 1116q0 213 -160 213q-55 0 -115 -39q-113 -162 -112 -348l-101 -106q-23 53 -28 106l-9 86q-43 260 -233 260q-51 0 -82 -35q-39 -43 -39 -104q0 -199 53 -289q74 -123 86 -149q47 -88 70 -168l422 -6q31 100 151 307 q97 166 97 272zM1006 496l-400 6q4 -25 6 -39l385 -6q5 14 9 39zM991 416l-375 6q2 -12 2 -33l369 -6q0 13 4 33z" />
<glyph unicode="N" horiz-adv-x="1142" d="M1053 1434l-35 -611l-166 -18l-16 629h217zM1059 754l-254 -33v33l250 32zM1057 707l-2 -48l-258 -24l4 41zM1030 610l-29 -633l-215 -12l-497 1100l-2 -307l-162 12l-10 645h131l602 -1278l-2 455zM334 721l-4 -37h-238l8 45zM344 647l-6 -49l-254 6l2 47zM289 -4 l-199 -12l31 583l168 -18v-553z" />
<glyph unicode="O" d="M1397 815l-8 -57h-48q4 -29 5 -45h47l-4 -49h-41v-21q0 -106 -19 -180q-35 -137 -141 -244l-68 -67q-160 -160 -385 -160q-221 0 -289 35q-152 78 -239 213q-102 154 -103 352v67h-71l8 50h68q2 16 6 45h-74l-16 41l96 4q66 258 221 420l68 69q158 162 376 162 q102 0 183 -47q74 -43 161 -146q66 -76 105 -151q74 -143 100 -295zM866 1290q-70 25 -147 25q-170 0 -299 -113q-147 -172 -178 -397l82 4q0 6 2 16v15q29 231 209 346q131 82 317 90zM1217 586v39l-3 37l-133 -3l9 50l118 2q-4 29 -8 45l-110 -2l-17 41q59 4 117 6 q-25 104 -78 209q-25 49 -35 63q-14 25 -45 55q-4 4 -41 56q-27 37 -57 53q-27 2 -55 2q-205 0 -353 -106q-164 -121 -164 -322l76 4l-8 -57l-72 -2v-45l76 2l-4 -49h-65q18 -184 122 -297l-26 -27q-113 121 -135 322q-12 1 -35.5 1t-57.5 -1q2 -330 310 -500 q59 -33 256 -33q174 0 307 111q72 92 94 182q17 68 17 164zM319 711v45h-83q-2 -14 -3 -45h86zM805 621q11 -17 11 -33q0 -22 -25 -39q-17 -11 -33 -12q-22 0 -39 26q-11 17 -12 32q0 22 26 40q17 11 32 11q23 1 40 -25z" />
<glyph unicode="P" horiz-adv-x="1021" d="M993 842q0 -265 -307 -373q-129 -45 -309 -55l-17 -422l-59 2l21 612h-56l-14 -618l-172 -13l37 1420l166 6l-11 -397h64q6 137 14 397q33 2 65 2q249 0 406 -143q172 -158 172 -418zM858 825q1 13 1 26q0 148 -108 260q-118 122 -276 122q-41 0 -80 -10l-28 -717 q139 16 239 55q240 88 252 264zM336 963h-64l-2 -64h62q2 13 4 64zM332 858h-62l-2 -94h60zM326 723h-58l-2 -76h58z" />
<glyph unicode="Q" horiz-adv-x="1490" d="M1421 508q-6 -150 -133 -289q-104 -117 -231 -170q-104 -45 -254 -45h-43q-72 -143 -72 -250q0 -90 40 -148.5t114 -58.5q23 0 41 7q12 31 12 71q0 33 -23.5 54.5t-56.5 21.5q-10 0 -45 -23l-20 29l57 51q43 29 63 29q47 0 82 -33t35 -80q0 -109 -61 -168 q-70 -68 -156 -67q-90 0 -140 67.5t-50 176.5q0 111 104 327q-92 12 -180 35q-129 33 -268 197q-162 188 -162 380q0 231 65 345q86 152 209 262q178 162 438 184q133 -8 269 -88q121 -72 194 -170q173 -228 174 -584zM1110 1112q-152 145 -348 145q-88 0 -176 -32 q-139 -51 -239.5 -193.5t-110.5 -312.5zM1161 1057q-16 20 -26 30l-899 -399q0 -35 2 -51zM1184 1026l-940 -428q4 -18 8 -39q43 -172 179 -289.5t306 -138.5q74 184 76 295v16q0 162 -80 168q-20 2 -35.5 -17.5t-15.5 -43.5q0 -20 33 -49l-62 -66q-51 47 -51 84q0 51 2 64 q8 37 43 69q53 51 133 51q74 0 113 -67q29 -55 29 -137v-21q-6 -111 -107 -348q80 4 152 31q158 59 247 202q88 137 89 306q0 198 -119 358z" />
<glyph unicode="R" horiz-adv-x="1284" d="M1204 266q8 -37 8 -73q0 -109 -67 -168q-108 -97 -252 -97h-23q-258 12 -510 230q-6 6 -18 16l2 -205l-160 -6l2 381l-153 197l100 104q33 -29 53 -45l4 715h-6q-33 0 -129 -21l140 140q66 14 98 14q289 0 495 -74q154 -55 238 -143q133 -141 133 -367q0 -72 -43 -162 q-45 -96 -119 -163q-207 -195 -462 -195q-35 0 -185 27q53 -74 105 -115q287 -227 446 -227q121 0 178 57q27 27 27 98q0 111 -113 111q-53 0 -53 -31q0 -45 119 -45l-94 -92q-127 0 -127 74q0 55 47 112q61 74 153 74q61 0 107.5 -35t58.5 -86zM1026 756q0 193 -129 350 q-68 82 -225 135q-74 25 -144 39l-4 -799q74 -4 119 -4q176 0 326 111q57 84 57 168zM496 1286q-27 6 -80 12q12 -401 20 -804q8 0 23.5 -2.5t23.5 -4.5zM397 502q-8 401 -20 803q-6 2 -20.5 3t-22.5 1l6 -791q18 -4 57 -16zM674 879q11 -17 11 -33q0 -22 -26 -39 q-17 -11 -32 -12q-22 0 -39 26q-11 17 -12 32q0 22 26 40q17 11 32 11q23 1 40 -25z" />
<glyph unicode="S" horiz-adv-x="1323" d="M408 1542q11 -17 11 -32q0 -22 -26 -40q-17 -11 -32 -11q-22 0 -39 26q-11 17 -12 32q0 22 26 39q17 11 32 12q23 0 40 -26zM260 1382q11 -17 12 -32q0 -22 -26 -39q-17 -11 -32 -12q-22 0 -40 26q-11 17 -11 32q0 22 25 40q17 11 33 11q22 0 39 -26zM1264 526 q0 -227 -183 -409q-160 -160 -397 -160q-209 0 -342 78q-102 59 -176 170q-86 125 -86 256q0 172 20 209l99 49l20 -12q-18 -45 -18 -144q0 -127 73 -248q70 -113 166 -155l66 -29q-168 102 -176 287q-1 12 -1 24q0 105 50 172q63 90 194 91q215 0 215 -232 q0 -74 -49 -136.5t-118 -62.5q-49 0 -90.5 40t-41.5 79q0 109 86 142l17 -37q-61 -25 -62 -105q0 -25 30 -51.5t61 -26.5q53 0 90 49.5t37 108.5q0 88 -46.5 139.5t-128.5 51.5q-109 0 -161 -76q-41 -62 -42 -153q0 -8 1 -17q6 -129 106 -215q94 -84 256 -115q166 8 291 135 q106 106 106 195q0 373 -321 438q-471 96 -496 307q-1 9 -1 19q0 81 79 176q84 100 242 102h11q140 0 233 -49q88 -45 96 -106q3 -18 3 -35q0 -57 -34 -92q-55 -57 -117 -58h-4q-55 2 -80 51l58 66q14 -23 51 -23q14 0 28.5 13.5t14.5 25.5q0 39 -77 71q-68 28 -138 28h-19 q-72 -4 -122 -35q-66 -39 -66 -109q0 -94 150 -143l292 -68q351 -82 351 -471zM252 1161q11 -17 11 -32q0 -22 -25 -39q-17 -11 -33 -12q-22 0 -39 26q-11 17 -12 32q0 22 26 40q17 11 32 11q23 0 40 -26z" />
<glyph unicode="T" horiz-adv-x="1028" d="M995 1434l-12 -189l-926 -8l-16 172zM729 1180l-295 -17l12 -975l-45 5l-10 520l-76 4l4 49l70 -6v55h-82l4 49h76v54l-76 -5v50l74 -5q0 109 -4 238l340 25zM647 -4l-147 6l-25 1110l158 14z" />
<glyph unicode="U" horiz-adv-x="1468" d="M1458 188q0 -90 -63 -149q-74 -70 -174 -70q-145 0 -203 183q-143 -195 -375 -195q-125 0 -205 121q-74 113 -73 270q0 119 62 362.5t62 354.5q0 297 -213 297q-100 0 -133 -62q-12 -25 -12 -49q0 -37 22.5 -62.5t57.5 -21.5q20 61 20 50l64 59q2 -24 2 -44 q0 -81 -27 -108l-45 -45q-37 -37 -90 -37q-49 0 -87 47.5t-38 102.5q0 80 82 174q104 121 256 121q137 0 215 -103q68 -86 68 -208q0 -133 -19 -242l373 49q23 256 70 463l174 22q-55 -270 -72 -378q-33 -201 -39 -408q-2 -74 -2 -135q0 -102 6 -170q12 -145 33 -199 q39 -98 137 -98q53 0 69.5 20.5t16.5 40.5q0 53 -65 54q-20 0 -25 -2q-8 -10 -18 -19l-27 31l39 49q16 14 35 27q10 6 43 8h7q91 0 91 -101zM981 940l-379 -61l-6 -32q-4 -22 -6 -34l387 68q2 10 3 29.5t1 29.5zM985 279q0 12 -2 18q-15 213 -15 345q0 17 1 32q0 88 6 151 l-400 -69l-51 -195q-25 -106 -24 -184q0 -115 39 -199q45 -98 123 -98q141 0 251 98q43 38 72 101z" />
<glyph unicode="V" horiz-adv-x="976" d="M854 1395l-356 -1014l-31 55l338 971zM1001 1389l-466 -1395l-173 -19l-161 574l-72 -27l-6 62l61 20l-20 74l-66 -21l-12 62l61 18l-178 633l203 49l143 -631l54 17l12 -55l-53 -17l18 -76l60 19l6 -49l-54 -21l109 -477l448 1272z" />
<glyph unicode="W" horiz-adv-x="1554" d="M1198 1481q11 -17 12 -32q0 -22 -26 -40q-17 -11 -32 -11q-22 0 -40 25q-11 17 -11 32q0 22 25 40q17 11 33 12q22 0 39 -26zM1051 1321q11 -17 11 -32q0 -22 -26 -40q-17 -11 -32 -11q-22 0 -39 26q-11 17 -12 32q0 22 26 39q17 11 32 12q23 0 40 -26zM1010 1108 q11 -17 11 -32q0 -22 -26 -40q-17 -11 -32 -11q-22 0 -39 26q-11 17 -12 32q0 22 26 39q17 11 32 12q23 0 40 -26zM1563 1184l-113 -72q0 186 -92 186q-35 0 -62 -14q-137 -203 -137 -604q0 -121 41 -354q41 -242 43 -293l-121 -51q-35 6 -157 196q-88 135 -129 236 q-61 147 -78 252q-76 -158 -228 -430l-168 -261l-110 25l78 328q37 172 37 280q0 324 -21 426q-45 227 -209 228q-20 0 -42.5 -18.5t-28.5 -47.5q-3 -19 -4 -34q0 -56 49 -56q27 0 69 27l25 -33l-49 -45q-61 -32 -89 -32q-4 0 -8 1q-84 20 -83 109q0 13 1 28q8 66 68 131 q31 35 76 59.5t65 24.5q317 0 318 -696q0 -152 -33 -334l250 514l115 58q49 -252 108 -414q82 -221 174 -332q-76 289 -76 469q0 496 148 698q74 102 206 102q14 0 29 -1q63 -6 103 -94q35 -78 35 -162z" />
<glyph unicode="X" horiz-adv-x="1198" d="M1108 1313l-317 -549l-41 10l321 559zM1112 182q0 -100 -65.5 -165.5t-135.5 -65.5q-176 0 -245 219q-33 102 -68 446l-371 -639l-129 50l480 770q-39 270 -123 436q-61 123 -152 123q-45 0 -85 -48t-40 -81q0 -106 72 -115h7q44 0 65 74l34 -23q0 -68 -37.5 -107.5 t-89.5 -39.5q-66 0 -104.5 48t-38.5 120q0 104 87 191t194 87q51 0 112.5 -47t83.5 -92q84 -174 115 -365l309 500l80 -37l-369 -633q14 -164 31 -325q23 -188 70 -281q61 -119 176 -119q23 0 37 7q12 29 12 65q0 82 -76 98q-1 0 -3 1q-21 0 -73 -54l-4 78l50 49 q23 18 57 19q53 0 95 -42.5t42 -101.5zM457 694l-363 -573l-41 10l367 584z" />
<glyph unicode="Y" horiz-adv-x="1183" d="M1155 1143l-4 -49h-53q-2 -10 -8.5 -32t-10.5 -34h56l4 -45h-74q-119 -299 -399 -328l10 -667l-160 12l25 653q-324 27 -435 338h-69l8 49h45q-4 14 -14 58h-47l4 41h35q-15 92 -15 189v44h135q-6 -60 -5 -115q0 -63 7 -118l832 4q31 115 35 229l73 4q0 -9 1 -17 q0 -105 -23 -216h47zM1008 1094l-809 4q8 -41 14 -60l770 -8q15 29 25 64zM961 983q-197 2 -732 6q94 -231 369 -231q240 0 363 225z" />
<glyph unicode="Z" horiz-adv-x="1030" d="M975 1311l-643 -1188l618 74l-4 -197l-819 -20l688 1269q-45 -18 -82 -18q-111 0 -265.5 45t-172.5 45q-106 0 -119 -59q-2 -11 -2 -20q0 -40 45 -40q33 0 72 60l28 -21q-10 -25 -40 -78q-33 -43 -93 -43q-35 0 -67.5 31t-32.5 68q0 78 49 135q66 76 215 76 q33 0 191.5 -25t226.5 -25q80 0 205 33zM733 1180l-655 -1200l-33 20l655 1192z" />
<glyph unicode="[" horiz-adv-x="487" d="M418 1481l-19 -146h-135l4 -1380h144l-17 -162l-278 12v1661z" />
<glyph unicode="\" horiz-adv-x="983" d="M993 -47l-110 -55l-867 1515l97 68z" />
<glyph unicode="]" horiz-adv-x="487" d="M387 -195l-278 -12l-17 162h144l4 1380h-136l-18 146l301 -15v-1661z" />
<glyph unicode="^" horiz-adv-x="741" d="M666 1139l-58 -49l-243 157l-242 -149l-57 53l231 258h131z" />
<glyph unicode="_" horiz-adv-x="1130" d="M1188 -193l-17 -106l-1204 12l-16 94h1237z" />
<glyph unicode="`" horiz-adv-x="573" d="M449 1096l-76 -58l-269 303l158 111z" />
<glyph unicode="a" horiz-adv-x="958" d="M911 113l-10 -109q-49 -45 -100 -45q-98 0 -119 172q-41 -57 -141.5 -104t-196.5 -47q-274 0 -274 258q0 96 73 200q104 147 295 148q147 0 240 -70q-43 348 -221 348q-86 0 -172 -78l-43 54q37 63 131 104q77 33 146 33h16q158 -8 241 -172q74 -141 74 -346 q0 -37 -3 -96.5t-3 -92.5q0 -130 -1 -130l-1 14q2 -74 24 -74q6 0 20.5 13.5t24.5 19.5zM684 338q-78 102 -166 125l-14 -357q104 39 174 111q0 -2 6 121zM477 469q-25 4 -39 4l-16 -381q14 0 39 4q2 2 16 373zM397 475h-4q-18 0 -41 -8l-16 -371q16 0 47 -4q8 193 14 383z M309 449q-135 -74 -135 -189q0 -125 123 -156q8 173 12 345z" />
<glyph unicode="b" horiz-adv-x="956" d="M897 451q0 -188 -136 -326q-130 -131 -284 -131h-14q-145 6 -230 63v-49l-120 -8l-15 1098l-55 -4l-4 41l57 4q1 9 1 26t-1 41l-53 -4l-4 41l55 4l-2 174l170 17l-4 -178l119 8l4 -41l-123 -8l-2 -66l125 10l4 -41l-129 -10l-6 -338q132 105 300 105h19 q141 -6 234.5 -123t93.5 -305zM758 446q0 123 -56 213q-63 102 -174 111q-8 1 -15 1q-48 0 -114 -21q-88 -29 -153 -84q-2 -141 -10 -525q93 -55 196 -55q19 0 39 2q106 10 196.5 120.5t90.5 237.5zM539 442q0 -27 -19.5 -47t-48.5 -20q-27 0 -47.5 20.5t-20.5 46.5 q0 29 20.5 48.5t47.5 19.5q29 0 48.5 -19.5t19.5 -48.5z" />
<glyph unicode="c" horiz-adv-x="940" d="M586 1020q6 -13 6 -23q0 -22 -27 -34q-13 -6 -23 -6q-22 0 -34 26q-6 13 -6 23q0 22 26 34q13 6 23 6q22 0 35 -26zM412 977q0 -59 -60 -59q-59 0 -59 59t59 59q60 0 60 -59zM225 913q15 -17 16 -33q0 -18 -20 -36q-17 -15 -34 -16q-18 0 -35 20q-15 17 -16 34 q0 18 20 36q17 15 33 15q19 0 36 -20zM979 424q-98 -152 -205 -242q-242 -205 -412 -205q-131 0 -222 111t-91 250q0 215 174 395q160 166 334 166q66 0 119 -31q59 -37 59 -88q0 -70 -41 -108l-110 -105l-41 45q51 49 51 84q0 55 -121 56q-109 0 -194 -62 q-82 -121 -82 -266q0 -115 72.5 -207t179.5 -92q147 0 319 147q78 66 162 189zM502 225l-6 -45q-246 37 -246 252q0 90 39 182l39 -18q-35 -82 -35 -158q0 -182 209 -213z" />
<glyph unicode="d" horiz-adv-x="989" d="M692 930l-37 -8l-4 495l33 4zM897 1430l-12 -1438l-117 -17l-2 76q-100 -88 -279 -88q-160 0 -270 80q-147 102 -147 317q0 199 158.5 346.5t373.5 147.5q68 0 135 -18q-4 162 -20 594h180zM762 176l-19 520q-53 12 -118 13q-154 0 -256 -68q-131 -90 -131 -276 q0 -262 249 -263q175 0 275 74zM473 596q9 -13 9 -25q0 -19 -23 -34q-13 -9 -25 -9q-19 0 -35 23q-9 13 -8 25q0 19 23 34q13 9 25 9q19 0 34 -23zM403 453q13 -18 14 -35q0 -21 -24 -37q-18 -13 -34 -13q-21 0 -37 23q-13 18 -14 34q0 21 24 38q18 13 34 13q21 0 37 -23z M446 231q-4 -23 -20 -34q-14 -11 -34 -11h-7q-23 4 -35 20.5t-10 41.5q4 23 20 35q14 11 35 10h6q23 -4 35 -20.5t10 -41.5z" />
<glyph unicode="e" horiz-adv-x="952" d="M887 45l-129 -35q-94 -18 -242 -18q-193 0 -315 114q-141 131 -142 386q0 205 172 325q145 104 332 105q281 0 324 -283l-688 -16q-12 -33 -15 -54l697 21l-4 -49l-701 -21v-28q0 -178 107 -299q100 -115 245 -115q152 0 340 41zM782 713q-63 123 -213 123 q-238 0 -342 -158z" />
<glyph unicode="f" horiz-adv-x="747" d="M315 1507q11 -17 12 -32q0 -22 -26 -39q-17 -11 -32 -12q-22 0 -40 26q-11 17 -11 32q0 22 26 40q17 11 32 11q22 0 39 -26zM184 1346q11 -17 12 -33q0 -22 -26 -39q-17 -11 -32 -12q-22 0 -40 26q-11 17 -11 32q0 22 26 40q17 11 32 11q22 1 39 -25zM96 1163 q11 -17 12 -32q0 -22 -26 -39q-17 -11 -32 -12q-22 0 -40 26q-11 17 -11 32q0 22 26 40q17 11 32 11q22 0 39 -26zM770 1243q0 -139 -74 -221q-59 -68 -133 -68q-55 0 -101 38t-46 79q0 63 30 92l68 64l29 -29q-31 -31 -31 -59q0 -29 24.5 -56.5t61.5 -27.5q47 0 47 104 q0 59 -41 101q-49 47 -139 47q-68 0 -129 -37q-49 -82 -49 -178t32 -203l60 -178q16 -53 31 -152q59 0 116.5 8t108.5 8q31 0 74 -14l-103 -98q-43 6 -41 6q-6 0 -147 -12q4 -74 4 -109q0 -229 -113 -340l-108 -106l-29 28q121 121 121 318q0 109 -12 203q-96 4 -250 43 l102 94q39 -10 125 -23q-4 20 -8 33l-60 184q-33 111 -32 209q0 170 92 262l108 109q70 70 191 70q106 0 168 -62q53 -53 53 -127z" />
<glyph unicode="g" horiz-adv-x="856" d="M821 27q13 -18 13 -35q0 -21 -23 -37q-18 -13 -34 -13q-21 0 -38 23q-13 18 -13 34q0 21 24 38q18 13 34 13q21 0 37 -23zM662 88q8 -14 7 -25q0 -19 -22 -30q-14 -8 -25 -8q-19 0 -30 22q-8 14 -8 25q0 19 22 30q14 8 25 8q19 0 31 -22zM836 -258q0 -166 -164 -252 q-119 -61 -252 -61q-152 0 -262 73q-117 80 -117 205q0 158 270 223q-55 41 -55 88q0 70 76 129q-119 14 -187 111q-63 90 -63 227q0 213 119 322l78 72q74 68 180 67q63 0 110 -26q56 121 169 121q4 0 7 -1q70 -2 70 -71q0 -29 -22 -45l-52 -45l-30 30q6 2 6 13 q0 29 -35 28q-45 0 -57 -80l59 -77q47 -84 47 -199q0 -205 -117 -313l-77 -72q-51 -47 -109 -57q-39 -39 -39 -68q0 -66 115 -84q332 -53 332 -258zM559 698q-27 63 -76 101h-2q-37 23 -100 22q-55 0 -96 -22q-66 -92 -66 -242q0 -49 10 -100zM584 627q-2 12 -9 32 l-331 -245q2 -4 6 -13.5t6 -13.5zM594 522q0 18 -4 60l-311 -230q61 -82 174 -82q41 0 77 17q64 96 64 235zM702 -330q0 113 -141 170q-61 14 -102 15q-96 0 -178 -25q-106 -29 -107 -84q0 -98 90 -149q82 -47 211 -48q57 0 137 37q90 41 90 84z" />
<glyph unicode="h" horiz-adv-x="894" d="M291 1425l-4 -280l-183 -6l-6 282zM358 1081l-307 -20l-4 41l307 20zM930 113q0 -55 -37 -117q-49 -82 -135 -82q-88 0 -137 70q-41 59 -41 149q0 51 15 190.5t15 174.5q0 106 -35 184q-41 94 -116 94q-63 0 -115 -67q-45 -59 -63 -144l-7 -557l-143 -4l-25 1032l179 6 l-2 -272q88 127 206 127q115 0 181 -117q53 -96 53 -225q0 -57 -12.5 -186t-12.5 -176q0 -78 17 -113q25 -49 90 -49q14 0 29.5 22.5t15.5 40.5q0 57 -49 58q-10 0 -23 -13l-33 33l37 35q29 27 60 26q88 1 88 -120z" />
<glyph unicode="i" horiz-adv-x="462" d="M414 1204q0 -74 -52.5 -126t-125.5 -52q-74 0 -126.5 52t-52.5 126t52.5 126t126.5 52t126 -52t52 -126zM342 942l-4 -958l-33 4l-4 954h41zM264 -20l-127 12l-16 946h143v-958zM311 1204q0 31 -22.5 53.5t-52.5 22.5q-31 0 -53.5 -22.5t-22.5 -53.5t22.5 -53.5 t53.5 -22.5t53 22.5t22 53.5z" />
<glyph unicode="j" horiz-adv-x="462" d="M348 1255q14 -25 14 -51q0 -53 -40 -80q-25 -16 -54 -16q-39 0 -66.5 27.5t-27.5 68.5q0 53 43 80q23 14 51 14q53 0 80 -43zM352 692l-252 -6v41l252 6v-41zM334 606l-252 -6v41l252 6v-41zM346 526l-252 -6v41l252 6v-41zM389 618q0 -309 -24 -598q-10 -125 -54 -233 q-53 -131 -139 -186q-102 -66 -201 -66q-53 0 -103 62.5t-50 121.5q0 80 55 131l51 48q41 39 88 39h8q80 -4 80 -105q0 -18 -30 -63l-39 -41l-39 26q16 33 16 39q0 55 -31 55q-20 0 -32.5 -22.5t-12.5 -40.5q0 -45 33 -93t72 -48q29 0 76 37.5t61 76.5q35 92 43 197 q25 285 25 592q0 92 -19 395l148 55q18 -375 18 -379z" />
<glyph unicode="k" horiz-adv-x="751" d="M367 1337q8 -14 7 -24q0 -19 -22 -31q-14 -8 -25 -8q-19 0 -30 22q-8 14 -8 25q0 19 22 31q14 8 25 7q19 0 31 -22zM395 1155q0 -53 -53 -53t-53 53t53 53t53 -53zM383 1006q9 -16 9 -30q0 -23 -27 -38q-16 -9 -30 -9q-23 0 -38 27q-9 16 -9 30q0 23 27 38q16 9 30 9 q24 0 38 -27zM948 -117q2 -15 2 -29q0 -101 -88 -178q-61 -53 -149 -53q-80 0 -135 66q-47 57 -60 145q-2 19 -2 50t2 73l6 104q0 154 -71 283q-78 147 -201 160l10 -527l-170 17l21 1421l120 -8l15 -721l344 309l123 -110l-416 -287q131 -4 236.5 -152.5t105.5 -312.5 q0 -33 -6 -113.5t-6 -121.5q0 -70 37 -117q41 -53 106 -53q31 0 47.5 28.5t11.5 55.5q-10 51 -69 51q-10 0 -23 -13l-28 -22l-27 25q6 10 23 26l71 72q23 29 56 29q102 -1 114 -97z" />
<glyph unicode="l" horiz-adv-x="552" d="M557 61l-51 -57q-41 -45 -76 -45q-68 0 -141 119q-51 84 -82 176q-31 -53 -105 -170q-18 -29 -55 -80l-45 35q86 129 172 336q-45 197 -45 399q0 213 47 408q63 266 182 266q74 0 82 -123q4 -53 4 -108q0 -446 -157 -814q68 -258 200 -319q20 -12 41 25zM332 1249 q0 8 -6 47q-84 -168 -84 -514q0 -84 10 -192q84 285 84 553q0 55 -4 106z" />
<glyph unicode="m" horiz-adv-x="1148" d="M1124 133q0 -86 -55 -151.5t-129 -65.5q-68 0 -120 52t-52 124q0 45 6 84l-414 6q-12 -254 -200 -254q-141 0 -142 131q0 53 24 86t40 41q33 16 102 17q-57 -35 -57 -88q0 -80 61 -80q51 0 52 119q0 92 -74 226t-74 247q0 117 72 188l72 72q63 63 155 63q158 0 219 -188 q43 104 90 151q61 61 158 62q96 0 156 -78q53 -72 53 -174q0 -123 -89 -288t-89 -271q0 -51 37 -90t86 -39q14 0 20 2q12 35 12 67q0 61 -61 62q-8 0 -55 -12l51 79q4 0 16.5 5.5t18.5 5.5q49 0 79.5 -33t30.5 -78zM946 651q0 205 -143 205q-49 0 -101 -127l-77 -215 l-121 -123q11 114 12 114v-1q0 133 -43 219q-51 106 -154 106q-45 0 -75.5 -46t-30.5 -85q0 -106 55 -213q74 -141 82 -174l459 -8q10 27 88 184q49 98 49 164zM795 262q-356 7 -422 7q-16 0 -15 -1q2 -12 2 -43v-2l422 -6q5 16 13 45z" />
<glyph unicode="n" horiz-adv-x="819" d="M750 575v-18q0 -63 -9 -299q-8 -268 -12 -315l-158 2q25 448 25 535v18q-25 279 -145 278q-125 0 -175 -190l-2 -156l121 8l4 -41l-125 -8l-2 -70l117 9l4 -41l-123 -8q0 -90 -4 -283l-143 -4l-10 276l-88 -6l-5 41l91 6l-2 68q-20 0 -78 -4l-4 41q61 5 75 4q5 0 4 0 l-16 504l193 4l-2 -150q78 123 225 123q117 0 184 -119q52 -90 60 -205z" />
<glyph unicode="o" horiz-adv-x="1036" d="M973 332q-10 -100 -92 -193q-70 -76 -152 -112q-66 -29 -166 -29q-98 0 -201 27q-86 23 -180 131q-106 127 -106 256q2 150 45 225q53 92 137 176q127 106 293 121q88 -4 178 -60q80 -47 129 -112q119 -158 119 -365q0 -32 -4 -65zM842 365q8 39 8 77q0 70 -27 136 q-39 94 -116.5 151t-171.5 57q-125 0 -205 -86zM829 326l-526 346q-16 -20 -29 -41l535 -352q8 14 20 47zM791 246l-533 350q-6 -12 -16 -41l520 -342q6 6 15.5 17.5t13.5 15.5zM731 186l-500 330q-5 -32 -5 -61q0 -40 10 -76q31 -111 119.5 -181.5t197.5 -70.5q96 0 178 59 z" />
<glyph unicode="p" horiz-adv-x="940" d="M872 481q0 -186 -107.5 -304t-252.5 -124h-19q-142 0 -255 88l6 -362l125 -8l-4 -41l-121 8l2 -80l116 -8l-4 -41l-112 8l4 -160l-170 17l2 155l-62 4l5 41l57 -4l2 80l-57 4l4 41l53 -4l16 1157l121 -8l2 -102q80 57 228 63h16q154 0 272 -110q133 -124 133 -310z M733 485q0 125 -83 218.5t-191 103.5q-20 2 -39 2q-106 0 -195 -57q6 -250 8 -500q115 -91 221 -91q9 0 17 1q115 8 191 110q71 96 71 213zM586 643q0 -59 -60 -59q-59 0 -59 59t59 59q60 0 60 -59zM655 500q7 -14 7 -26q0 -24 -29 -38q-15 -7 -26 -6q-25 0 -38 29 q-7 15 -6 26q0 25 29 37q13 6 24 6q25 0 39 -28zM594 340q8 -15 8 -29q0 -25 -31 -41q-12 -5 -23 -5q-14 0 -28 8q-25 15 -24 44q0 51 49 52q33 0 49 -29z" />
<glyph unicode="q" horiz-adv-x="929" d="M1085 -317q0 -147 -116 -222q-82 -53 -168 -53q-113 0 -176 164q-53 137 -54 322q0 115 17 235q-123 -113 -273 -113q-115 0 -180 95q-61 86 -61 221q0 180 88 346q123 227 356 227q156 0 256 -149l29 69q12 31 45 82l65 -28l-86 -222q-141 -424 -141 -759 q0 -143 39 -244q49 -123 143 -123q29 0 65 29.5t36 62.5q0 113 -62 113q-31 0 -30 -27q0 -10 18 -28l-59 -62q-33 45 -33 70q0 66 42 111.5t105 45.5q66 0 100.5 -45.5t34.5 -117.5zM713 598q-104 197 -256 197q-98 0 -185 -68q-57 -84 -73 -215l483 -4l16.5 46t14.5 44z M670 467l-475 4q-2 -10 -2 -33l466 -4q2 6 5.5 17.5t5.5 15.5zM647 393l-454 4q2 -111 49 -180q51 -78 141 -78q111 0 221 82q18 90 43 172z" />
<glyph unicode="r" horiz-adv-x="724" d="M664 561l-97 25q23 55 23 104q0 100 -88 101q-129 0 -219 -205l-4 -230l-152 2l12 433l-139 20v94l266 -4l4 -135l82 94q63 53 174 53q84 0 133 -61q43 -57 43 -141q1 -82 -38 -150zM414 279l-340 12v41l340 -13v-40zM276 254l-2 -254l-159 -25l8 281z" />
<glyph unicode="s" horiz-adv-x="1097" d="M1042 299q0 -289 -311 -299h-692l6 113q12 0 172 -7l186 338q-303 37 -303 211q0 223 379 250q185 13 299 13h31l-6 -119q-91 8 -169 8q-124 0 -212 -21q-125 -29 -143 -36q-66 -31 -66 -107q0 -68 211 -84q61 -4 313 -4q127 0 209 -57q96 -68 96 -199zM887 281 q0 84 -39 117.5t-129 37.5h-98l-181 -327q180 4 260 4q187 0 187 168zM580 436h-48l-182 -327h49zM492 438q-33 0 -50 2l-184 -334h51z" />
<glyph unicode="t" horiz-adv-x="757" d="M385 1296q-4 -70 -16 -317l-187 -4l-6 235zM524 905l-499 -12v41l499 12v-41zM524 836l-499 -13v41l499 13v-41zM707 299q0 -199 -129 -283q-78 -49 -181 -49q-90 0 -147 80q-53 74 -53 174q0 225 -9 570l177 4l-27 -502q0 -211 131 -211q51 0 90 20q31 53 31 125 q0 82 -92 82l-54 -55l-38 22q18 72 69 113q45 37 92 37q59 0 99.5 -36t40.5 -91z" />
<glyph unicode="u" horiz-adv-x="862" d="M784 971l-24 -977h-105l-6 178q-104 -195 -295 -195q-188 0 -188 238q0 94 49 243.5t49 248.5q0 154 -88 153q-41 0 -41 -33q0 -39 21 -39q18 0 30 11l31 -35l-55 -55q-27 -20 -66 -21q-29 0 -50 32t-21 66q0 57 34 107q57 80 189 80q70 0 110 -62q35 -55 35 -137 q0 -98 -43 -245.5t-43 -241.5t19 -131q25 -49 96 -50q53 0 116.5 71t102.5 171q-4 164 -23 604zM147 487q10 -13 10 -24q0 -16 -18 -29q-31 -23 -53 8q-23 31 8 54q13 10 25 9q15 0 28 -18zM123 279q0 -47 -47 -48q-47 0 -47 48q0 47 47 47t47 -47zM131 131q10 -14 10 -26 q0 -19 -22 -35q-14 -10 -27 -10q-19 0 -35 22q-10 14 -9 26q0 19 22 35q14 10 26 10q19 0 35 -22z" />
<glyph unicode="v" horiz-adv-x="823" d="M854 938l-393 -954l-119 -4l-344 917l172 70l223 -641l271 641l36 -17l-288 -682q8 -18 24 -67l312 762z" />
<glyph unicode="w" horiz-adv-x="1048" d="M1012 401q0 -205 -105 -303l-71 -67q-57 -43 -119 -43q-164 0 -225 145q-80 -156 -259 -156q-188 0 -188 201q0 84 49 235.5t49 243.5q0 45 -47 123q-53 82 -102 92l133 89q57 -20 109 -107q47 -78 47 -131q0 -94 -49.5 -244.5t-49.5 -236.5q0 -141 119 -142q59 0 107 86 q39 70 51 158v102l129 119q4 -72 4 -196q0 -256 194 -256q-4 0 33 6q51 88 51 219q0 76 -52 214t-52 222q0 94 49 193l141 43q-51 -111 -51 -170q0 -84 52.5 -223.5t52.5 -215.5zM354 729q0 -106 -49 -270t-49 -221h-41q0 57 49 221t49 270q0 70 -41 135l-61 86l33 25 q63 -86 67 -94q43 -74 43 -152z" />
<glyph unicode="x" horiz-adv-x="1048" d="M944 903l-684 -919l-49 10l684 919zM557 635l-94 -125q-2 115 -55 201q-61 96 -156 96q-37 0 -86 -23q-29 -53 -29 -98q0 -131 82 -131q10 0 14 2q4 16 5 23q0 27 -60 59l66 63q68 -33 67 -84q0 -53 -35 -88l-45 -45q-35 -35 -84 -34q-53 0 -86 53q-29 47 -28 110 q0 94 67 162l72 72q63 63 152 63q172 0 233 -276zM1020 266q0 -94 -68 -162l-71 -71q-63 -63 -152 -64q-172 0 -213 295l102 137q2 -20 3 -63q0 -102 38 -174q49 -90 142 -90q39 0 88 22q27 49 26 99q0 131 -81 131q-10 0 -15 -2q-4 -16 -4 -23q0 -27 59 -59l-73 -76 q-72 35 -72 80q0 51 39 92l53 57q33 35 84 35q53 0 84 -50.5t31 -113.5zM864 911l-684 -919l-49 10l684 920z" />
<glyph unicode="y" horiz-adv-x="823" d="M852 909q-37 -117 -98 -366q-59 -240 -97 -355q-123 -387 -307 -567q-104 -102 -246 -102q-88 0 -135 67q-41 59 -41 152q0 72 43 145q66 109 193 109q39 0 77 -38t38 -77q0 -45 -23 -86l-74 -76l-37 27q16 37 17 63q0 25 -15.5 47.5t-40.5 22.5t-43 -24.5t-18 -40.5 q0 -174 131 -175q68 0 127 72q78 92 148 287l-220 385l-65 -43l-21 33l68 43l-20 34l-64 -40l-20 32q33 23 65 41l-22 41l-64 -41l-20 33l63 41q2 2 -162 289l178 98l136 -291l137 88l20 -32l-141 -91q6 -10 20 -41l142 91l20 -33l-145 -92l18 -37l144 92l20 -33l-147 -94 l141 -299q35 115 100 381q68 276 101 387z" />
<glyph unicode="z" horiz-adv-x="921" d="M426 639q-47 0 -47 47t47 47t47 -47t-47 -47zM905 227q0 -76 -53 -153q-80 -115 -227 -115q-66 0 -181.5 48t-193.5 48q-70 0 -144 -53l-86 72l648 729l-516 -29l-13 139l688 5l13 -111l-500 -627q63 -4 157.5 -55t176.5 -51q39 0 76.5 38t37.5 72q0 100 -71 101 q-29 0 -29 -29q0 -4 21 -39l-74 -67q-39 45 -39 94q0 154 160 153q68 0 108.5 -49t40.5 -121zM348 594q12 -14 13 -28q0 -15 -17 -29q-14 -12 -28 -13q-15 0 -29 17q-12 14 -13 27q0 15 17 30q14 12 27 12q16 0 30 -16zM248 457q5 -13 5 -24q0 -26 -32 -40q-13 -5 -24 -5 q-26 0 -39 32q-5 13 -6 24q0 26 32 39q13 5 24 6q27 0 40 -32z" />
<glyph unicode="{" horiz-adv-x="573" d="M494 -252q-147 23 -234.5 109t-87.5 217q0 82 45 195.5t45 174.5q0 37 -22.5 76t-61.5 52.5t-115 23.5v115h46q70 0 120 36.5t50 92.5q0 61 -40 166.5t-40 177.5q0 207 295 309v-147q-164 -47 -164 -183q0 -76 32.5 -172t32.5 -164q0 -49 -36.5 -99t-86.5 -79 q125 -80 125 -176t-49 -206.5t-49 -190.5t45 -122t150 -60v-146z" />
<glyph unicode="|" horiz-adv-x="471" d="M303 -113l-123 -12v1587l117 -6z" />
<glyph unicode="}" horiz-adv-x="573" d="M522 596q-76 -10 -114.5 -23.5t-61 -52.5t-22.5 -76q0 -61 45 -174.5t45 -195.5q0 -131 -87 -217t-235 -109v146q104 18 149.5 60t45.5 122t-49.5 190.5t-49.5 206.5t125 176q-49 29 -86 79t-37 99q0 68 33 164t33 172q0 135 -164 183v147q295 -102 295 -309 q0 -72 -40 -177.5t-40 -166.5q0 -55 50.5 -92t119.5 -37h45v-115z" />
<glyph unicode="~" horiz-adv-x="854" d="M774 1348l-53 -91q-94 -119 -211 -118q-47 0 -115.5 50t-118.5 50q-70 0 -124 -96l-58 33l49 84q78 133 185 133q47 0 115.5 -50.5t117.5 -50.5q84 0 160 92z" />
<glyph unicode="&#xa1;" horiz-adv-x="583" d="M477 1327q0 -68 -49 -118t-117 -50q-70 0 -119 50.5t-49 117.5q0 68 49.5 117t118.5 49q68 0 117 -49t49 -117zM193 934l-48 -500l-43 6l48 498zM508 145l-88 -6l6 -223l-270 33l14 174l-66 -4l-4 43l74 4l8 86l-78 -4l-4 43l86 6l66 788l135 -8l27 -766l90 6l4 -43 l-92 -6l2 -86l86 6zM434 1327q0 51 -36 87t-87 36q-53 0 -89 -36t-36 -87t37 -88t88 -37t87 37t36 88zM342 1331q0 -39 -39 -39q-37 0 -37 39t37 39q39 0 39 -39z" />
<glyph unicode="&#xa2;" horiz-adv-x="1081" d="M1008 715q-104 -156 -199 -236q-156 -133 -268 -172l8 -235h-115l10 217h-20q-127 0 -213 104.5t-86 237.5q0 203 162 370q84 88 159 121l-12 285h115l-8 -252q41 4 61 4q66 0 122 -36t56 -87q0 -68 -43 -108l-110 -107l-52 66q47 45 48 69q0 39 -99 39q-94 0 -168 -51 q-72 -104 -71 -233q0 -98 61 -176q66 -84 158 -84q131 0 282 131q51 43 158 180z" />
<glyph unicode="&#xa3;" horiz-adv-x="993" d="M926 324q0 -150 -107.5 -257.5t-222.5 -107.5q-55 0 -136 23.5t-141 23.5q-92 0 -217 -67l-20 28l72 70l30 532l-45 -2l-20 -354l-41 4l55 971l41 -4l-20 -369q43 0 43 2l20 342q2 49 35 115q37 76 92 123q100 84 223 84q76 0 147.5 -69t71.5 -152q0 -35 -18 -82 l-82 -105l-27 23q12 37 13 63q0 78 -46 140.5t-106 62.5q-43 0 -86 -58.5t-53 -136.5l-16 -340q41 2 151 11l-4 -45l-150 -11l-4 -51l142 4l-4 -41l-142 -6l-4 -67l146 4l-4 -41l-146 -6l-39 -480q49 16 84 17q59 0 140 -24.5t137 -24.5q59 0 108 28q41 66 41 158 q0 80 -56 126t-145 46q-12 0 -34 -16q-31 -20 -31 -48q0 -49 67 -49q8 0 21 4l41 39l27 -24q-6 -10 -25 -29l-55 -53q-27 -27 -64 -27q-43 0 -73.5 24.5t-30.5 61.5q0 90 45 144q53 63 151 75q104 12 187.5 -47t83.5 -155zM195 772l-45 -2q0 -12 -3 -47l46 2zM190 680 l-45 -2l-4 -66l45 2z" />
<glyph unicode="&#xa4;" horiz-adv-x="1112" d="M1014 68l-115 -127l-96 106q-74 -49 -205 -49q-102 0 -201 27q-45 12 -102 57l-125 -141l-115 127l125 137q-72 106 -69 207q2 152 45 225q20 35 51 76l-152 170l115 123l152 -170q121 86 264 98q98 -6 190 -66l123 138l115 -123l-115 -129q113 -158 113 -355 q0 -139 -80 -239zM877 365q8 39 8 77q0 70 -27 136q-39 94 -116.5 151t-172.5 57q-125 0 -204 -86zM864 326l-526 346q-16 -20 -29 -41l535 -352q8 14 20 47zM825 246l-532 350q-6 -12 -17 -41l521 -342q6 6 15 17.5t13 15.5zM766 186l-500 330q-12 -74 4 -137 q31 -111 120 -181.5t198 -70.5q96 0 178 59z" />
<glyph unicode="&#xa5;" horiz-adv-x="1198" d="M1155 1143l-4 -49h-53q-2 -10 -8.5 -32t-10.5 -34h56l4 -45h-74q-119 -299 -399 -328q2 -78 0 -80l278 -2v-127l-276 -6q2 -29 2 -98h270v-125l-268 -2l4 -227l-160 12l8 215l-276 -2l12 129h268l4 96l-272 -6l21 150l256 -4q2 20 4 75q-324 27 -435 338h-69l8 49h45 q-4 14 -14 58h-47l4 41h35q-18 113 -15 233h135q-12 -131 2 -233l832 4q31 115 35 229l73 4q2 -113 -22 -233h47zM1008 1094l-809 4q8 -41 14 -60l770 -8q15 29 25 64zM961 983q-197 2 -732 6q94 -231 369 -231q240 0 363 225z" />
<glyph unicode="&#xa6;" horiz-adv-x="471" d="M299 793q-119 0 -119 -2v671l117 -6zM303 -113l-123 -12v662h121z" />
<glyph unicode="&#xa7;" horiz-adv-x="653" d="M551 1346l-76 -129l-76 51q-43 25 -77 24q-55 0 -89 -28q-10 -45 -10 -64q0 -129 82 -211l156 -129q82 -82 82 -211q0 -86 -35 -145l-53 -92q-37 -63 -93 -66q96 -74 123 -106q57 -72 58 -183q0 -88 -35 -147l-53 -92q-37 -63 -101 -64q-150 0 -264 154l76 125 q100 -143 244 -144q14 0 26 7q10 37 10 69q0 127 -81 211l-156 127q-82 82 -82 211q0 78 33 135l53 94q39 55 86 76q-92 74 -117 109q-55 72 -55 180q0 78 33 135l53 92q55 94 162 95q53 0 176 -84zM446 557q0 47 -14 94q-74 49 -110 49q-53 0 -89 -30q-10 -45 -10 -64 q0 -27 6 -55q72 -68 181 -68q14 0 26 6q10 37 10 68z" />
<glyph unicode="&#xa8;" horiz-adv-x="823" d="M717 1284q0 -47 -35 -83t-86 -36q-47 0 -82 36t-35 83t35 83t82 36q51 0 86 -35t35 -84zM365 1284q0 -47 -35 -83t-82 -36q-49 0 -85 36t-36 83q0 49 36 84t85 35q47 0 82 -36t35 -83z" />
<glyph unicode="&#xa9;" horiz-adv-x="1591" d="M1434 928q35 -102 34 -211q0 -264 -192 -475q-199 -215 -459 -215q-209 0 -403.5 126t-251.5 291q-33 94 -33 207q0 217 110.5 421t280.5 278q94 41 213 41q221 0 422 -127q211 -133 279 -336zM1376 907q-63 184 -250.5 303t-388.5 119q-106 0 -192 -37 q-156 -66 -258 -256q-98 -182 -99 -381q0 -104 31 -190q53 -150 229.5 -263.5t364.5 -113.5q238 0 417 193.5t179 435.5q0 96 -33 190zM926 719q0 -29 -20.5 -48.5t-49.5 -19.5t-50.5 19.5t-21.5 48.5t20.5 50.5t49.5 21.5q31 0 51.5 -21.5t20.5 -50.5zM1141 334l-119 -31 q-88 -18 -223 -18q-178 0 -291 104q-131 123 -131 356q0 190 160 304q133 94 305 94q113 0 170 -19q51 -16 100 -59l-55 -57q-90 57 -209 57q-61 0 -133 -21l14 -667q43 -14 82 -15q119 0 313 39zM705 385l-15 651q-27 -8 -39 -16l13 -617q25 -14 41 -18zM639 420l-12 588 l-19 -13q-12 -8 -18 -14l10 -528q19 -17 39 -33zM573 481l-8 480q-82 -86 -82 -216q0 -153 90 -264z" />
<glyph unicode="&#xaa;" horiz-adv-x="737" d="M662 815l-7 -76q-35 -31 -69 -30q-68 0 -84 120q-29 -41 -96 -71q-74 -35 -140 -35q-193 0 -192 180q0 68 51 141q74 102 207 103q104 0 168 -49q-29 244 -156 243q-59 0 -121 -53l-28 37q27 45 88 71.5t116 24.5q111 -6 168 -121q51 -98 51 -241q0 -27 -2 -69t-2 -64 q0 -133 17 -133q4 0 14.5 9t16.5 13zM504 973q-55 72 -117 88l-10 -250q80 31 123 78q0 27 4 84zM358 1065q-16 4 -26 4l-13 -268q10 0 27 4q2 2 12 260zM303 1069h-4q-16 0 -29 -4l-10 -260q10 0 33 -4zM242 1051q-96 -53 -97 -131q0 -86 86 -109z" />
<glyph unicode="&#xab;" horiz-adv-x="921" d="M745 182l-63 -139l-270 352v78l256 344l73 -121l-215 -262zM475 182l-63 -139l-271 352v78l256 344l74 -121l-215 -262z" />
<glyph unicode="&#xac;" horiz-adv-x="888" d="M803 303l-266 4l4 254l-439 -10l25 237l668 -10z" />
<glyph unicode="&#xad;" horiz-adv-x="892" d="M782 610l-698 -18l20 196l678 -10v-168z" />
<glyph unicode="&#x2212;" horiz-adv-x="892" d="M782 610l-698 -18l20 196l678 -10v-168z" />
<glyph unicode="&#xae;" horiz-adv-x="1062" d="M956 1147q23 -68 23 -135q0 -174 -127 -312.5t-297 -138.5q-135 0 -262 82t-164 188q-20 61 -20 136q0 141 71.5 273t181.5 179q61 27 140 27q143 0 277 -84t177 -215zM920 1133q-41 119 -163 196.5t-253 77.5q-70 0 -125 -25q-100 -43 -166 -164.5t-66 -250.5 q0 -66 19 -121q35 -96 149.5 -171t237.5 -75q156 0 271.5 126t115.5 284q0 62 -20 123zM748 848q14 -55 -21 -86q-43 -37 -98 -35q-104 4 -189 88v-74l-57 -2l2 138q-37 45 -55 69l35 37q2 -2 20 -14l2 254h-4q-4 0 -45 -9l49 50q10 6 35 6q94 0 178 -25q57 -25 84 -53 q49 -51 49 -129q0 -61 -59 -119q-72 -68 -166 -67q-27 0 -64 8q16 -27 37 -41q106 -82 158 -82q45 0 63 22q10 8 11 35q0 39 -41 39q-18 0 -19 -12q0 -14 43 -15l-34 -32q-45 0 -46 24q0 23 17 41q23 27 55 27q48 0 60 -43zM684 1022q0 74 -47 125q-25 31 -80 49 q-14 6 -51 14l-2 -284q14 -2 43 -2q61 0 117 39q20 30 20 59zM496 1212q-20 4 -29 5l6 -287q8 0 16 -4zM459 932q-2 80 -6 287q-10 0 -17 2l4 -283zM569 1067q12 -14 -4 -27q-16 -8 -26 7q-2 4 -2 8q0 12 8 16q16 12 24 -4z" />
<glyph unicode="&#xaf;" horiz-adv-x="854" d="M680 1376l-25 -172l-475 13l-8 147z" />
<glyph unicode="&#x2c9;" horiz-adv-x="854" d="M680 1376l-25 -172l-475 13l-8 147z" />
<glyph unicode="&#xb0;" horiz-adv-x="768" d="M662 1210q14 -39 14 -80q0 -106 -81 -195t-183 -89q-90 0 -175 63.5t-112 139.5q-14 43 -14 92q0 106 61 194q70 96 172 97q94 0 190.5 -69t127.5 -153zM360 1303q-53 0 -87.5 -50.5t-34.5 -107.5q0 -29 8 -53q14 -43 61 -79t96 -36q55 0 99.5 47t44.5 100q0 59 -64 119 t-123 60z" />
<glyph unicode="&#xb1;" horiz-adv-x="829" d="M762 610l-244 -6l4 -334l-196 21l6 307l-254 -6l20 196l238 -4l8 310h168l4 -312l246 -4v-168zM762 8l-684 -18l20 196l664 -10v-168z" />
<glyph unicode="&#xb2;" horiz-adv-x="946" d="M895 651l-61 -63q-33 154 -113 250q-27 -106 -109 -185q-113 -109 -282 -108q-88 0 -149.5 57t-61.5 143q0 109 67 173l43 40q88 84 224 84q113 0 200 -43q-4 96 -53 205q-68 150 -256 150q-37 0 -63 -15q-16 -25 -17 -65q0 -68 45 -68q8 6 13 23q4 20 -5 33l31 38 q27 -39 27 -55q0 -18 -21 -43l-32 -39q-14 -16 -41 -16q-31 0 -56.5 26.5t-25.5 59.5q0 66 39 104l43 43q39 39 104 39q205 0 279.5 -164.5t74.5 -257.5v-55q121 -105 156 -291zM647 907q-102 70 -235 70q-92 0 -179 -66q-49 -63 -49 -123q0 -78 47.5 -120.5t126.5 -42.5 q111 0 197 80q76 69 92 202zM549 899q14 -27 -12 -41q-27 -14 -41 12q-14 27 12 41q27 15 41 -12zM422 915q12 -25 -10 -38q-27 -14 -39 10q-16 23 10 39q25 16 39 -11zM322 864q14 -23 -11 -39q-27 -12 -39 9q-14 23 11 40q27 15 39 -10zM287 766q10 -27 -15 -39 q-29 -14 -43 14q-10 27 17 41q27 11 41 -16z" />
<glyph unicode="&#xb3;" horiz-adv-x="737" d="M659 915q0 -127 -284 -301q-111 -68 -262 -114l6 84q150 43 282 127q184 117 185 172q0 90 -137 123l-230 28l293 295h-37l-250 -252l-18 8l239 242l-294 -12l4 90l452 8l13 -65l-232 -263q147 -27 182 -41q88 -39 88 -129z" />
<glyph unicode="&#xb4;" horiz-adv-x="573" d="M465 1341l-268 -303l-76 58l186 356z" />
<glyph unicode="&#xb5;" horiz-adv-x="804" d="M743 971l-24 -977h-105l-6 178q-104 -195 -295 -195q-53 0 -92 23q4 -43 22.5 -99.5t18.5 -90.5q0 -117 -74 -117q-80 0 -79 123q0 37 21.5 93t21.5 83q0 14 -13.5 89t-13.5 134q0 94 49 243.5t49 248.5q0 154 -88 153q-41 0 -41 -33q0 -39 21 -39q18 0 30 11l31 -35 l-55 -55q-27 -20 -66 -21q-29 0 -50 32t-21 66q0 57 34 107q57 80 189 80q70 0 110 -62q35 -55 35 -137q0 -98 -43 -245.5t-43 -241.5t19 -131q25 -49 96 -50q53 0 116.5 71t102.5 171q-4 164 -22 604zM106 487q23 -31 -8 -53q-31 -23 -53 8q-23 31 8 54q30 22 53 -9z M82 279q0 -47 -47 -48q-47 0 -47 48q0 47 47 47t47 -47zM90 131q25 -35 -12 -61q-35 -25 -62 12q-25 35 13 61q34 25 61 -12z" />
<glyph unicode="&#x3bc;" horiz-adv-x="804" d="M743 971l-24 -977h-105l-6 178q-104 -195 -295 -195q-53 0 -92 23q4 -43 22.5 -99.5t18.5 -90.5q0 -117 -74 -117q-80 0 -79 123q0 37 21.5 93t21.5 83q0 14 -13.5 89t-13.5 134q0 94 49 243.5t49 248.5q0 154 -88 153q-41 0 -41 -33q0 -39 21 -39q18 0 30 11l31 -35 l-55 -55q-27 -20 -66 -21q-29 0 -50 32t-21 66q0 57 34 107q57 80 189 80q70 0 110 -62q35 -55 35 -137q0 -98 -43 -245.5t-43 -241.5t19 -131q25 -49 96 -50q53 0 116.5 71t102.5 171q-4 164 -22 604zM106 487q23 -31 -8 -53q-31 -23 -53 8q-23 31 8 54q30 22 53 -9z M82 279q0 -47 -47 -48q-47 0 -47 48q0 47 47 47t47 -47zM90 131q25 -35 -12 -61q-35 -25 -62 12q-25 35 13 61q34 25 61 -12z" />
<glyph unicode="&#xb6;" horiz-adv-x="1021" d="M913 1305l-100 -5l-6 -1425l-123 -12l12 1431l-116 -6l-7 -1413l-122 -12l4 690q-139 12 -240 102q-123 111 -123 303q0 254 139 383q86 80 209 99h471z" />
<glyph unicode="&#xb7;" horiz-adv-x="559" d="M449 719q0 -57 -41 -98t-99 -41q-57 0 -98 41t-41 98t41 98t98 41t98.5 -41t41.5 -98z" />
<glyph unicode="&#x2219;" horiz-adv-x="559" d="M449 719q0 -57 -41 -98t-99 -41q-57 0 -98 41t-41 98t41 98t98 41t98.5 -41t41.5 -98z" />
<glyph unicode="&#xb8;" horiz-adv-x="577" d="M244 -498q-102 6 -164 82l33 58q53 -37 116 -25q109 20 109 113q0 74 -57 100q-18 8 -43 8q-41 0 -82 -22l-43 32l45 230l129 -2l-39 -144q51 10 102 -4q137 -39 137 -190q0 -102 -69.5 -172t-173.5 -64z" />
<glyph unicode="&#xb9;" horiz-adv-x="483" d="M401 1409l-8 -858l-26 4l4 850zM346 539l-90 8l4 694q-41 -45 -84 -47q-86 -2 -86 72q0 55 47 67q35 8 35 -22q0 -14 -14.5 -19.5t-14.5 -25.5q0 -25 35 -15q82 25 82 121v51l86 4v-888z" />
<glyph unicode="&#xba;" horiz-adv-x="778" d="M696 1010q-8 -70 -65 -133q-47 -55 -105 -80q-45 -20 -116 -21q-68 0 -140 19q-59 16 -125 92q-76 90 -75 180q2 106 29.5 156.5t97.5 124.5q90 74 204 84q127 -6 215 -121q82 -109 82 -254q0 -22 -2 -47zM606 1034q16 74 -14 148q-61 145 -203 145q-92 0 -141 -59z M596 1006l-367 243q-6 -10 -20 -28l373 -248q4 6 14 33zM569 950l-372 246q-4 -8 -11 -29l363 -239q8 6 20 22zM528 909l-350 230q-10 -51 2 -97q20 -76 84 -125t139 -49q70 0 125 41z" />
<glyph unicode="&#xbb;" horiz-adv-x="921" d="M784 395l-270 -352l-63 139l219 252l-215 262l73 121l256 -344v-78zM514 395l-270 -352l-64 139l219 252l-215 262l74 121l256 -344v-78z" />
<glyph unicode="&#xbc;" horiz-adv-x="1622" d="M1411 242l-106 -9q-8 -66 -15 -98l4 -155l-104 -3l6 93q6 51 14 155l-346 -26q-6 20 -6 41q0 66 35 143q12 25 84 123q53 74 53 131q0 98 -88 98q-4 -2 -8 -6q-8 -18 -8 -39q0 -23 16 -28q18 -8 43 36q14 -29 4 -41l-43 -43q-16 -16 -39 -16q-43 0 -43 45q0 55 33 88 l45 45q18 18 45 19q49 0 83 -35t34 -82q0 -66 -45 -154l-78 -139q-8 -16 -16 -74l256 13q2 35 2 96v115q0 262 6 335l90 31q-4 -57 -4 -295q0 -25 2 -66.5t2 -52.5q0 -76 -6 -159l80 4l-2 -27l-80 -6q-2 -8 -2 -31l102 6v-32zM436 1409l-8 -858l-27 4l5 850zM1149 1348 l-881 -1389l-96 78l877 1368zM381 539l-90 8l4 694q-41 -45 -84 -47q-86 -2 -86 72q0 55 47 67q35 8 35 -22q0 -14 -14.5 -19.5t-14.5 -25.5q0 -25 35 -15q82 25 82 121v51l86 4v-888zM1217 295l-254 -14q0 -20 4 -33l247 14q0 6 3 17v16z" />
<glyph unicode="&#xbd;" horiz-adv-x="1622" d="M1534 98l-61 -63q-33 154 -113 250q-27 -106 -109 -185q-113 -109 -282 -108q-88 0 -149.5 57t-61.5 144q0 109 67 172l43 41q88 84 224 83q113 0 200 -43q-4 96 -53 205q-68 150 -256 150q-37 0 -63 -15q-16 -25 -17 -65q0 -68 45 -68q8 6 13 23q4 20 -5 33l31 39 q27 -39 27 -56q0 -18 -21 -43l-32 -39q-14 -16 -41 -16q-31 0 -56.5 26.5t-25.5 59.5q0 66 39 104l43 43q39 39 104 39q205 0 279.5 -164.5t74.5 -257.5v-55q121 -105 156 -291zM401 1409l-8 -858l-26 4l4 850zM1114 1348l-881 -1389l-96 78l877 1368zM346 539l-90 8l4 694 q-41 -45 -84 -47q-86 -2 -86 72q0 55 47 67q35 8 35 -22q0 -14 -14.5 -19.5t-14.5 -25.5q0 -25 35 -15q82 25 82 121v51l86 4v-888zM1286 354q-102 70 -235 70q-92 0 -179 -66q-49 -63 -49 -122q0 -78 47.5 -121t126.5 -43q111 0 197 80q76 69 92 202zM1188 346 q14 -27 -12 -41q-27 -14 -41 12q-14 27 12 41q27 15 41 -12zM1061 362q12 -25 -10 -38q-27 -14 -39 10q-16 23 10 39q25 16 39 -11zM961 311q14 -23 -11 -39q-27 -12 -39 9q-14 23 11 41q27 14 39 -11zM926 213q10 -27 -15 -39q-29 -14 -43 14q-10 27 17 41q27 11 41 -16z " />
<glyph unicode="&#xbe;" horiz-adv-x="1622" d="M1495 242l-106 -9q-8 -66 -15 -98l4 -155l-104 -3l6 93q6 51 14 155l-346 -26q-6 20 -6 41q0 66 35 143q12 25 84 123q53 74 53 131q0 98 -88 98q-4 -2 -8 -6q-8 -18 -8 -39q0 -23 16 -28q18 -8 43 36q14 -29 4 -41l-43 -43q-16 -16 -39 -16q-43 0 -43 45q0 55 33 88 l45 45q18 18 45 19q49 0 83 -35t34 -82q0 -66 -45 -154l-78 -139q-8 -16 -16 -74l256 13q2 35 2 96v115q0 262 6 335l90 31q-4 -57 -4 -295q0 -25 2 -66.5t2 -52.5q0 -76 -6 -159l80 4l-2 -27l-80 -6q-2 -8 -2 -31l102 6v-32zM1233 1348l-881 -1389l-96 78l877 1368z M633 915q0 -127 -285 -301q-111 -68 -262 -114l6 84q150 43 283 127q184 117 184 172q0 90 -137 123l-229 28l292 295h-36l-250 -252l-19 8l240 242l-295 -12l4 90l453 8l12 -65l-232 -263q147 -27 183 -41q88 -39 88 -129zM1300 295l-253 -14q0 -20 4 -33l247 14q0 6 2 17 v16z" />
<glyph unicode="&#xbf;" horiz-adv-x="956" d="M664 1321q0 -57 -41 -99t-101 -42q-57 0 -99 42t-42 99q0 59 42 100t99 41q59 0 100.5 -41t41.5 -100zM866 346q0 -156 -80 -233l-79 -78q-96 -94 -267 -94q-139 0 -238.5 109.5t-105.5 262.5q-8 223 140 328q59 41 217 84q-2 66 -7 139l-88 -4v41l84 4l-6 56l-74 -3v41 l68 2l-6 56l180 26q0 -12 2 -36v-39l84 4v-41l-82 -2q2 -18 4 -58l74 2v-41l-72 -2q0 -8 2 -108t2 -107q-190 -35 -276 -96l-78 -70q-39 -45 -39 -102q0 -133 85 -227t210 -94q111 0 168 63q53 57 53 139q0 125 -63 125q-37 0 -41 -16t25 -55l-70 -66q-53 47 -49 82 q6 55 37 88l41 43q47 49 135 49q51 0 84 -55q26 -51 26 -117zM492 160l-13 -41q-211 80 -190 305l41 -4q-16 -192 162 -260zM563 1294q0 45 -45 45t-45 -45t45 -45t45 45z" />
<glyph unicode="&#xc0;" horiz-adv-x="933" d="M535 1556l-76 -57l-269 303l158 111zM842 1047q18 -193 6 -523q-10 -293 -37 -536l-172 12l27 418l-390 -23q23 -244 5 -434q-18 -201 -113 -305q-82 -92 -205 -92q-61 0 -105 55t-44 125q0 84 49 131l41 39q33 31 69 31q68 0 93 -107l-62 -57q-8 74 -43 74 q-23 0 -22 -39q0 -47 27.5 -87t68.5 -40t67 14q31 59 52 215q8 70 -9 322q-31 457 -30 497q0 434 131 566l71 71q76 76 197 76q139 0 229 -123q83 -110 99 -280zM688 938q-35 387 -246 387q-31 0 -63 -20l-51 -33q-88 -141 -88 -463q0 -80 16 -207l422 23q14 288 10 313z M674 584q-207 -10 -414 -25q0 -14 4 -43l408 23q2 16 2 45zM670 498l-402 -23q4 -29 4 -39l396 23q0 6 2 20v19zM528 1202q14 -25 2 -49q-14 -25 -43 -25q-27 0 -41 21q-29 41 15 68q42 26 67 -15zM608 1018q10 -27 -5 -49.5t-42 -22.5q-51 0 -51 51t51 52q35 0 47 -31z M631 813q10 -59 -47 -70q-61 -12 -72 45q-12 61 47 72q62 12 72 -47z" />
<glyph unicode="&#xc1;" horiz-adv-x="933" d="M784 1833l-268 -303l-76 57l187 357zM842 1047q18 -193 6 -523q-10 -293 -37 -536l-172 12l27 418l-390 -23q23 -244 5 -434q-18 -201 -113 -305q-82 -92 -205 -92q-61 0 -105 55t-44 125q0 84 49 131l41 39q33 31 69 31q68 0 93 -107l-62 -57q-8 74 -43 74 q-23 0 -22 -39q0 -47 27.5 -87t68.5 -40t67 14q31 59 52 215q8 70 -9 322q-31 457 -30 497q0 434 131 566l71 71q76 76 197 76q139 0 229 -123q83 -110 99 -280zM688 938q-35 387 -246 387q-31 0 -63 -20l-51 -33q-88 -141 -88 -463q0 -80 16 -207l422 23q14 288 10 313z M674 584q-207 -10 -414 -25q0 -14 4 -43l408 23q2 16 2 45zM670 498l-402 -23q4 -29 4 -39l396 23q0 6 2 20v19zM528 1202q14 -25 2 -49q-14 -25 -43 -25q-27 0 -41 21q-29 41 15 68q42 26 67 -15zM608 1018q10 -27 -5 -49.5t-42 -22.5q-51 0 -51 51t51 52q35 0 47 -31z M631 813q10 -59 -47 -70q-61 -12 -72 45q-12 61 47 72q62 12 72 -47z" />
<glyph unicode="&#xc2;" horiz-adv-x="933" d="M801 1520l-58 -50l-243 158l-242 -149l-57 53l231 258h131zM842 1047q18 -193 6 -523q-10 -293 -37 -536l-172 12l27 418l-390 -23q23 -244 5 -434q-18 -201 -113 -305q-82 -92 -205 -92q-61 0 -105 55t-44 125q0 84 49 131l41 39q33 31 69 31q68 0 93 -107l-62 -57 q-8 74 -43 74q-23 0 -22 -39q0 -47 27.5 -87t68.5 -40t67 14q31 59 52 215q8 70 -9 322q-31 457 -30 497q0 434 131 566l71 71q76 76 197 76q139 0 229 -123q83 -110 99 -280zM688 938q-35 387 -246 387q-31 0 -63 -20l-51 -33q-88 -141 -88 -463q0 -80 16 -207l422 23 q14 288 10 313zM674 584q-207 -10 -414 -25q0 -14 4 -43l408 23q2 16 2 45zM670 498l-402 -23q4 -29 4 -39l396 23q0 6 2 20v19zM528 1202q14 -25 2 -49q-14 -25 -43 -25q-27 0 -41 21q-29 41 15 68q42 26 67 -15zM608 1018q10 -27 -5 -49.5t-42 -22.5q-51 0 -51 51t51 52 q35 0 47 -31zM631 813q10 -59 -47 -70q-61 -12 -72 45q-12 61 47 72q62 12 72 -47z" />
<glyph unicode="&#xc3;" horiz-adv-x="933" d="M858 1747l-53 -90q-94 -119 -211 -119q-47 0 -115.5 50t-118.5 50q-70 0 -124 -96l-58 33l49 84q78 133 185 133q47 0 115.5 -50t117.5 -50q84 0 160 92zM842 1047q18 -193 6 -523q-10 -293 -37 -536l-172 12l27 418l-390 -23q23 -244 5 -434q-18 -201 -113 -305 q-82 -92 -205 -92q-61 0 -105 55t-44 125q0 84 49 131l41 39q33 31 69 31q68 0 93 -107l-62 -57q-8 74 -43 74q-23 0 -22 -39q0 -47 27.5 -87t68.5 -40t67 14q31 59 52 215q8 70 -9 322q-31 457 -30 497q0 434 131 566l71 71q76 76 197 76q139 0 229 -123q83 -110 99 -280z M688 938q-35 387 -246 387q-31 0 -63 -20l-51 -33q-88 -141 -88 -463q0 -80 16 -207l422 23q14 288 10 313zM674 584q-207 -10 -414 -25q0 -14 4 -43l408 23q2 16 2 45zM670 498l-402 -23q4 -29 4 -39l396 23q0 6 2 20v19zM528 1202q14 -25 2 -49q-14 -25 -43 -25 q-27 0 -41 21q-29 41 15 68q42 26 67 -15zM608 1018q10 -27 -5 -49.5t-42 -22.5q-51 0 -51 51t51 52q35 0 47 -31zM631 813q10 -59 -47 -70q-61 -12 -72 45q-12 61 47 72q62 12 72 -47z" />
<glyph unicode="&#xc4;" horiz-adv-x="933" d="M791 1614q0 -47 -35 -83t-86 -36q-47 0 -82 36t-35 83t35 83t82 36q51 0 86 -35t35 -84zM438 1614q0 -47 -34.5 -83t-81.5 -36q-49 0 -85 36t-36 83q0 49 35.5 84t85.5 35q47 0 81.5 -36t34.5 -83zM842 1047q18 -193 6 -523q-10 -293 -37 -536l-172 12l27 418l-390 -23 q23 -244 5 -434q-18 -201 -113 -305q-82 -92 -205 -92q-61 0 -105 55t-44 125q0 84 49 131l41 39q33 31 69 31q68 0 93 -107l-62 -57q-8 74 -43 74q-23 0 -22 -39q0 -47 27.5 -87t68.5 -40t67 14q31 59 52 215q8 70 -9 322q-31 457 -30 497q0 434 131 566l71 71 q76 76 197 76q139 0 229 -123q83 -110 99 -280zM688 938q-35 387 -246 387q-31 0 -63 -20l-51 -33q-88 -141 -88 -463q0 -80 16 -207l422 23q14 288 10 313zM674 584q-207 -10 -414 -25q0 -14 4 -43l408 23q2 16 2 45zM670 498l-402 -23q4 -29 4 -39l396 23q0 6 2 20v19z M528 1202q14 -25 2 -49q-14 -25 -43 -25q-27 0 -41 21q-29 41 15 68q42 26 67 -15zM608 1018q10 -27 -5 -49.5t-42 -22.5q-51 0 -51 51t51 52q35 0 47 -31zM631 813q10 -59 -47 -70q-61 -12 -72 45q-12 61 47 72q62 12 72 -47z" />
<glyph unicode="&#xc5;" horiz-adv-x="933" d="M842 1047q39 -428 -31 -1059l-172 12l27 418l-390 -23q23 -244 5 -434q-18 -201 -113 -305q-82 -92 -205 -92q-61 0 -105 55t-44 125q0 84 49 131l41 39q33 31 69 31q68 0 93 -107l-62 -57q-8 74 -43 74q-23 0 -22 -39q0 -47 27.5 -87t68.5 -40t67 14q31 59 52 215 q8 70 -9 322q-31 457 -30 497q0 434 131 566l71 71q31 31 76 53q-82 45 -108 121q-10 33 -11 68q0 80 50.5 150.5t126.5 70.5q70 0 142.5 -52t94.5 -116q10 -29 10 -61q0 -104 -90 -174q98 -35 162 -148q60 -102 72 -239zM463 1739q-41 0 -66.5 -37t-25.5 -80q0 -23 6 -41 q14 -37 56 -65.5t79 -20.5t63.5 41t26.5 70q0 45 -47 89t-92 44zM688 938q-35 387 -246 387q-31 0 -63 -20l-51 -33q-88 -141 -88 -463q0 -80 16 -207l422 23q14 288 10 313zM674 584q-207 -10 -414 -25q0 -14 4 -43l408 23q2 16 2 45zM670 498l-402 -23q4 -29 4 -39l396 23 q0 6 2 20v19zM528 1202q14 -25 2 -49q-14 -25 -43 -25q-27 0 -41 21q-29 41 15 68q42 26 67 -15zM608 1018q10 -27 -5 -49.5t-42 -22.5q-51 0 -51 51t51 52q35 0 47 -31zM631 813q10 -59 -47 -70q-61 -12 -72 45q-12 61 47 72q62 12 72 -47z" />
<glyph unicode="&#xc6;" horiz-adv-x="1777" d="M1073 279l-24 -33q-133 113 -134 286q0 96 37 185l37 -17q-33 -80 -33 -165q0 -156 117 -256zM1718 434q0 -170 -96 -264l-102 -100q-106 -104 -318 -105q-236 0 -385 133q0 -57 -6 -110l-172 12l27 418l-390 -23q23 -244 5 -434q-18 -201 -113 -305q-82 -92 -205 -92 q-61 0 -105 55t-44 125q0 84 49 131l41 39q33 31 69 31q68 0 93 -107l-62 -57q-8 74 -43 74q-23 0 -22 -39q0 -47 27.5 -87t68.5 -40t67 14q31 59 52 215q8 70 -9 322q-31 457 -30 497q0 434 131 566l71 71q76 76 197 76q139 0 229 -123q82 -111 99 -280q12 -129 -6 -254 l69 67q43 41 92 68q-86 74 -86 200q0 74 60 136l100 102q82 84 232 84q98 0 204 -68q115 -72 115 -153q0 -37 -23 -82l-102 -105l-33 23q16 37 17 63q0 70 -101 127q-92 51 -178 52q-80 0 -139 -27q-8 -33 -8 -51q0 -145 135 -211q72 -35 299 -78l-135 -135q-201 33 -238 33 q-133 0 -227 -62q-63 -98 -64 -229q0 -131 45 -211q47 -104 165 -168t268 -64q143 0 231 52q43 74 43 176q0 61 -37 103t-98 42h-8q-2 -6 -2 -16q0 -41 71 -80l-98 -94q-84 43 -84 110q0 61 51 111l70 65q47 45 100 45q80 0 128 -53t48 -131zM688 938q-35 387 -246 387 q-31 0 -63 -20l-51 -33q-88 -141 -88 -463q0 -80 16 -207l422 23q14 288 10 313zM674 584q-207 -10 -414 -25q0 -14 4 -43l408 23q2 16 2 45zM670 498l-402 -23q4 -29 4 -39l396 23q0 6 2 20v19zM528 1202q14 -25 2 -49q-14 -25 -43 -25q-27 0 -41 21q-29 41 15 68 q42 26 67 -15zM608 1018q10 -27 -5 -49.5t-42 -22.5q-51 0 -51 51t51 52q35 0 47 -31zM631 813q10 -59 -47 -70q-61 -12 -72 45q-12 61 47 72q62 12 72 -47z" />
<glyph unicode="&#xc7;" d="M958 784q25 -31 25 -69q0 -53 -43 -88q-31 -25 -72 -25q-55 0 -90 43q-25 31 -24 70q0 55 45 90q31 25 69 24q55 0 90 -45zM1333 86l-192 -51q-143 -29 -363 -29q-47 0 -94 6l-31 -116q51 10 103 -5q137 -39 137 -190q0 -102 -69.5 -172t-174.5 -64q-102 6 -164 82l33 58 q53 -37 117 -25q109 20 108 113q0 74 -57 100q-18 8 -43 8q-41 0 -82 -22l-43 33l43 223q-211 59 -332 227q-137 190 -137 494q0 307 258 489q219 156 498 156q180 0 276 -31q82 -27 164 -98l-90 -92q-80 49 -139 67q-80 25 -201 25q-109 0 -217 -31l23 -1087 q66 -18 133 -19q182 0 319 23q18 2 191 39zM623 168l-23 1059q-20 -8 -61 -27l20 -1001q33 -19 64 -31zM518 225l-20 953q-33 -18 -58 -39l15 -860q40 -38 63 -54zM414 326l-15 776q-131 -131 -131 -346q1 -254 146 -430z" />
<glyph unicode="&#xc8;" horiz-adv-x="1187" d="M694 1544l-76 -57l-268 303l158 111zM362 1350q-119 -82 -118 -211q0 -90 63 -187l-33 -20q-72 109 -71 209q0 150 139 245zM1116 434q0 -170 -96 -264l-102 -100q-106 -104 -318 -105q-164 0 -292 68.5t-179 181.5q-49 106 -49 229q0 197 121 316l102 100q41 41 92 68 q-86 74 -86 200q0 74 60 136l100 102q82 84 231 84q98 0 205 -68q115 -72 115 -153q0 -37 -23 -82l-102 -105l-33 23q16 37 17 63q0 70 -101 127q-92 51 -178 52q-80 0 -139 -27q-8 -33 -8 -51q0 -145 135 -211q72 -35 299 -78l-135 -135q-201 33 -238 33q-133 0 -227 -62 q-63 -98 -64 -229q0 -131 45 -211q47 -104 165 -168t267 -64q143 0 232 52q43 74 43 176q0 61 -37 103t-98 42h-9q-2 -6 -2 -16q0 -41 72 -80l-98 -94q-84 43 -84 110q0 61 51 111l70 65q47 45 100 45q80 0 128 -53t48 -131zM471 279l-25 -33q-133 113 -133 286q0 96 37 185 l37 -17q-33 -80 -33 -165q0 -156 117 -256z" />
<glyph unicode="&#xc9;" horiz-adv-x="1187" d="M944 1821l-268 -303l-76 57l186 356zM362 1350q-119 -82 -118 -211q0 -90 63 -187l-33 -20q-72 109 -71 209q0 150 139 245zM1116 434q0 -170 -96 -264l-102 -100q-106 -104 -318 -105q-164 0 -292 68.5t-179 181.5q-49 106 -49 229q0 197 121 316l102 100q41 41 92 68 q-86 74 -86 200q0 74 60 136l100 102q82 84 231 84q98 0 205 -68q115 -72 115 -153q0 -37 -23 -82l-102 -105l-33 23q16 37 17 63q0 70 -101 127q-92 51 -178 52q-80 0 -139 -27q-8 -33 -8 -51q0 -145 135 -211q72 -35 299 -78l-135 -135q-201 33 -238 33q-133 0 -227 -62 q-63 -98 -64 -229q0 -131 45 -211q47 -104 165 -168t267 -64q143 0 232 52q43 74 43 176q0 61 -37 103t-98 42h-9q-2 -6 -2 -16q0 -41 72 -80l-98 -94q-84 43 -84 110q0 61 51 111l70 65q47 45 100 45q80 0 128 -53t48 -131zM471 279l-25 -33q-133 113 -133 286q0 96 37 185 l37 -17q-33 -80 -33 -165q0 -156 117 -256z" />
<glyph unicode="&#xca;" horiz-adv-x="1187" d="M936 1569l-57 -49l-244 157l-242 -149l-57 53l231 258h131zM362 1350q-119 -82 -118 -211q0 -90 63 -187l-33 -20q-72 109 -71 209q0 150 139 245zM1116 434q0 -170 -96 -264l-102 -100q-106 -104 -318 -105q-164 0 -292 68.5t-179 181.5q-49 106 -49 229q0 197 121 316 l102 100q41 41 92 68q-86 74 -86 200q0 74 60 136l100 102q82 84 231 84q98 0 205 -68q115 -72 115 -153q0 -37 -23 -82l-102 -105l-33 23q16 37 17 63q0 70 -101 127q-92 51 -178 52q-80 0 -139 -27q-8 -33 -8 -51q0 -145 135 -211q72 -35 299 -78l-135 -135 q-201 33 -238 33q-133 0 -227 -62q-63 -98 -64 -229q0 -131 45 -211q47 -104 165 -168t267 -64q143 0 232 52q43 74 43 176q0 61 -37 103t-98 42h-9q-2 -6 -2 -16q0 -41 72 -80l-98 -94q-84 43 -84 110q0 61 51 111l70 65q47 45 100 45q80 0 128 -53t48 -131zM471 279 l-25 -33q-133 113 -133 286q0 96 37 185l37 -17q-33 -80 -33 -165q0 -156 117 -256z" />
<glyph unicode="&#xcb;" horiz-adv-x="1187" d="M938 1624q0 -47 -35 -83t-86 -36q-47 0 -82 36t-35 83t35 83t82 36q51 0 86 -35t35 -84zM586 1624q0 -47 -35 -83t-82 -36q-49 0 -85 36t-36 83q0 49 36 84t85 35q47 0 82 -36t35 -83zM362 1350q-119 -82 -118 -211q0 -90 63 -187l-33 -20q-72 109 -71 209q0 150 139 245 zM1116 434q0 -170 -96 -264l-102 -100q-106 -104 -318 -105q-164 0 -292 68.5t-179 181.5q-49 106 -49 229q0 197 121 316l102 100q41 41 92 68q-86 74 -86 200q0 74 60 136l100 102q82 84 231 84q98 0 205 -68q115 -72 115 -153q0 -37 -23 -82l-102 -105l-33 23 q16 37 17 63q0 70 -101 127q-92 51 -178 52q-80 0 -139 -27q-8 -33 -8 -51q0 -145 135 -211q72 -35 299 -78l-135 -135q-201 33 -238 33q-133 0 -227 -62q-63 -98 -64 -229q0 -131 45 -211q47 -104 165 -168t267 -64q143 0 232 52q43 74 43 176q0 61 -37 103t-98 42h-9 q-2 -6 -2 -16q0 -41 72 -80l-98 -94q-84 43 -84 110q0 61 51 111l70 65q47 45 100 45q80 0 128 -53t48 -131zM471 279l-25 -33q-133 113 -133 286q0 96 37 185l37 -17q-33 -80 -33 -165q0 -156 117 -256z" />
<glyph unicode="&#xcc;" horiz-adv-x="471" d="M301 1581l-76 -57l-268 303l158 110zM391 1317q0 -66 -46 -112t-112 -46t-111.5 46t-45.5 112t46 112t111 46q66 0 112 -46t46 -112zM356 1128l-12 -1128l-43 6l6 1116zM264 -18l-147 12l6 1143l141 6v-1161zM268 1317q0 35 -35 35t-34 -35q0 -35 34 -35q35 0 35 35z" />
<glyph unicode="&#xcd;" horiz-adv-x="471" d="M526 1804l-268 -303l-76 58l187 356zM391 1317q0 -66 -46 -112t-112 -46t-111.5 46t-45.5 112t46 112t111 46q66 0 112 -46t46 -112zM356 1128l-12 -1128l-43 6l6 1116zM264 -18l-147 12l6 1143l141 6v-1161zM268 1317q0 35 -35 35t-34 -35q0 -35 34 -35q35 0 35 35z" />
<glyph unicode="&#xce;" horiz-adv-x="471" d="M543 1556l-58 -49l-243 158l-242 -149l-57 53l231 258h131zM391 1341q0 -66 -46 -111.5t-112 -45.5t-111.5 46t-45.5 111q0 66 46 112t111 46q66 0 112 -46t46 -112zM356 1153l-12 -1153l-43 6l6 1141zM264 -18l-147 12l6 1167l141 6v-1185zM268 1341q0 35 -35 35 t-34 -35q0 -35 34 -34q35 -1 35 34z" />
<glyph unicode="&#xcf;" horiz-adv-x="471" d="M520 1614q0 -47 -34.5 -83t-86.5 -36q-47 0 -81.5 36t-34.5 83t34.5 83t81.5 36q51 0 86 -35t35 -84zM168 1614q0 -47 -35 -83t-82 -36q-49 0 -85 36t-36 83q0 49 36 84t85 35q47 0 82 -36t35 -83zM391 1292q0 -66 -46 -111.5t-112 -45.5t-111.5 46t-45.5 111 q0 66 46 112t111 46q66 0 112 -46t46 -112zM356 1104l-12 -1104l-43 6l6 1092zM264 -18l-147 12l6 1118l141 6v-1136zM268 1292q0 35 -35 35t-34 -35q0 -35 34 -35q35 0 35 35z" />
<glyph unicode="&#xd0;" horiz-adv-x="1294" d="M1233 827q0 -180 -88 -362q-182 -377 -682 -479q-88 -6 -250 -19q4 139 4 639l-156 -6l25 238l131 -2l-4 620q184 14 289 0q344 -49 571 -276q160 -160 160 -353zM1083 719q0 176 -147 323q-227 227 -569 265q-2 -37 -11 -476l242 -4l-4 -209l-240 -8q-2 -219 -8 -493h12 q131 0 205 18q311 78 424 250q96 148 96 334z" />
<glyph unicode="&#xd1;" horiz-adv-x="1142" d="M952 1710l-53 -90q-94 -119 -211 -119q-47 0 -115.5 50.5t-117.5 50.5q-70 0 -125 -97l-58 33l50 84q78 133 184 133q47 0 115.5 -50t117.5 -50q84 0 160 92zM1053 1434l-35 -611l-166 -18l-16 629h217zM1059 754l-254 -33v33l250 32zM1057 707l-2 -48l-258 -24l4 41z M1030 610l-29 -633l-215 -12l-497 1100l-2 -307l-162 12l-10 645h131l602 -1278l-2 455zM334 721l-4 -37h-238l8 45zM344 647l-6 -49l-254 6l2 47zM289 -4l-199 -12l31 583l168 -18v-553z" />
<glyph unicode="&#xd2;" d="M805 1556l-76 -57l-268 303l157 111zM1397 815l-8 -57h-48q4 -29 5 -45h47l-4 -49h-41v-21q0 -106 -19 -180q-35 -137 -141 -244l-68 -67q-160 -160 -385 -160q-221 0 -289 35q-152 78 -239 213q-102 154 -103 352v67h-71l8 50h68q2 16 6 45h-74l-16 41l96 4 q66 258 221 420l68 69q158 162 376 162q102 0 183 -47q74 -43 161 -146q66 -76 105 -151q74 -143 100 -295zM866 1290q-70 25 -147 25q-170 0 -299 -113q-147 -172 -178 -397l82 4q0 6 2 16v15q29 231 209 346q131 82 317 90zM1217 586v39l-3 37l-133 -3l9 50l118 2 q-4 29 -8 45l-110 -2l-17 41q59 4 117 6q-25 104 -78 209q-25 49 -35 63q-14 25 -45 55q-4 4 -41 56q-27 37 -57 53q-27 2 -55 2q-205 0 -353 -106q-164 -121 -164 -322l76 4l-8 -57l-72 -2v-45l76 2l-4 -49h-65q18 -184 122 -297l-26 -27q-113 121 -135 322q-25 2 -93 0 q2 -330 310 -500q59 -33 256 -33q174 0 307 111q72 92 94 182q17 68 17 164zM319 711v45h-83q-2 -14 -3 -45h86zM805 621q29 -43 -14 -72t-72 14t14 72t72 -14z" />
<glyph unicode="&#xd3;" d="M1067 1808l-268 -303l-76 58l186 356zM1397 815l-8 -57h-48q4 -29 5 -45h47l-4 -49h-41v-21q0 -106 -19 -180q-35 -137 -141 -244l-68 -67q-160 -160 -385 -160q-221 0 -289 35q-152 78 -239 213q-102 154 -103 352v67h-71l8 50h68q2 16 6 45h-74l-16 41l96 4 q66 258 221 420l68 69q158 162 376 162q102 0 183 -47q74 -43 161 -146q66 -76 105 -151q74 -143 100 -295zM866 1290q-70 25 -147 25q-170 0 -299 -113q-147 -172 -178 -397l82 4q0 6 2 16v15q29 231 209 346q131 82 317 90zM1217 586v39l-3 37l-133 -3l9 50l118 2 q-4 29 -8 45l-110 -2l-17 41q59 4 117 6q-25 104 -78 209q-25 49 -35 63q-14 25 -45 55q-4 4 -41 56q-27 37 -57 53q-27 2 -55 2q-205 0 -353 -106q-164 -121 -164 -322l76 4l-8 -57l-72 -2v-45l76 2l-4 -49h-65q18 -184 122 -297l-26 -27q-113 121 -135 322q-25 2 -93 0 q2 -330 310 -500q59 -33 256 -33q174 0 307 111q72 92 94 182q17 68 17 164zM319 711v45h-83q-2 -14 -3 -45h86zM805 621q29 -43 -14 -72t-72 14t14 72t72 -14z" />
<glyph unicode="&#xd4;" d="M1059 1532l-58 -49l-243 157l-242 -149l-57 53l231 258h131zM1397 815l-8 -57h-48q4 -29 5 -45h47l-4 -49h-41v-21q0 -106 -19 -180q-35 -137 -141 -244l-68 -67q-160 -160 -385 -160q-221 0 -289 35q-152 78 -239 213q-102 154 -103 352v67h-71l8 50h68q2 16 6 45h-74 l-16 41l96 4q66 258 221 420l68 69q158 162 376 162q102 0 183 -47q74 -43 161 -146q66 -76 105 -151q74 -143 100 -295zM866 1290q-70 25 -147 25q-170 0 -299 -113q-147 -172 -178 -397l82 4q0 6 2 16v15q29 231 209 346q131 82 317 90zM1217 586v39l-3 37l-133 -3l9 50 l118 2q-4 29 -8 45l-110 -2l-17 41q59 4 117 6q-25 104 -78 209q-25 49 -35 63q-14 25 -45 55q-4 4 -41 56q-27 37 -57 53q-27 2 -55 2q-205 0 -353 -106q-164 -121 -164 -322l76 4l-8 -57l-72 -2v-45l76 2l-4 -49h-65q18 -184 122 -297l-26 -27q-113 121 -135 322 q-25 2 -93 0q2 -330 310 -500q59 -33 256 -33q174 0 307 111q72 92 94 182q17 68 17 164zM319 711v45h-83q-2 -14 -3 -45h86zM805 621q29 -43 -14 -72t-72 14t14 72t72 -14z" />
<glyph unicode="&#xd5;" d="M1112 1722l-53 -90q-94 -119 -211 -119q-47 0 -115.5 50.5t-118.5 50.5q-70 0 -125 -96l-57 32l49 84q78 133 185 133q47 0 115.5 -50t117.5 -50q84 0 160 92zM1397 815l-8 -57h-48q4 -29 5 -45h47l-4 -49h-41v-21q0 -106 -19 -180q-35 -137 -141 -244l-68 -67 q-160 -160 -385 -160q-221 0 -289 35q-152 78 -239 213q-102 154 -103 352v67h-71l8 50h68q2 16 6 45h-74l-16 41l96 4q66 258 221 420l68 69q158 162 376 162q102 0 183 -47q74 -43 161 -146q66 -76 105 -151q74 -143 100 -295zM866 1290q-70 25 -147 25q-170 0 -299 -113 q-147 -172 -178 -397l82 4q0 6 2 16v15q29 231 209 346q131 82 317 90zM1217 586v39l-3 37l-133 -3l9 50l118 2q-4 29 -8 45l-110 -2l-17 41q59 4 117 6q-25 104 -78 209q-25 49 -35 63q-14 25 -45 55q-4 4 -41 56q-27 37 -57 53q-27 2 -55 2q-205 0 -353 -106 q-164 -121 -164 -322l76 4l-8 -57l-72 -2v-45l76 2l-4 -49h-65q18 -184 122 -297l-26 -27q-113 121 -135 322q-25 2 -93 0q2 -330 310 -500q59 -33 256 -33q174 0 307 111q72 92 94 182q17 68 17 164zM319 711v45h-83q-2 -14 -3 -45h86zM805 621q29 -43 -14 -72t-72 14 t14 72t72 -14z" />
<glyph unicode="&#xd6;" d="M1049 1626q0 -47 -35 -83t-86 -36q-47 0 -82 36t-35 83t35 83t82 36q51 0 86 -35t35 -84zM696 1626q0 -47 -34.5 -83t-81.5 -36q-49 0 -85 36t-36 83q0 49 35.5 84t85.5 35q47 0 81.5 -36t34.5 -83zM1397 815l-8 -57h-48q4 -29 5 -45h47l-4 -49h-41v-21q0 -106 -19 -180 q-35 -137 -141 -244l-68 -67q-160 -160 -385 -160q-221 0 -289 35q-152 78 -239 213q-102 154 -103 352v67h-71l8 50h68q2 16 6 45h-74l-16 41l96 4q66 258 221 420l68 69q158 162 376 162q102 0 183 -47q74 -43 161 -146q66 -76 105 -151q74 -143 100 -295zM866 1290 q-70 25 -147 25q-170 0 -299 -113q-147 -172 -178 -397l82 4q0 6 2 16v15q29 231 209 346q131 82 317 90zM1217 586v39l-3 37l-133 -3l9 50l118 2q-4 29 -8 45l-110 -2l-17 41q59 4 117 6q-25 104 -78 209q-25 49 -35 63q-14 25 -45 55q-4 4 -41 56q-27 37 -57 53 q-27 2 -55 2q-205 0 -353 -106q-164 -121 -164 -322l76 4l-8 -57l-72 -2v-45l76 2l-4 -49h-65q18 -184 122 -297l-26 -27q-113 121 -135 322q-25 2 -93 0q2 -330 310 -500q59 -33 256 -33q174 0 307 111q72 92 94 182q17 68 17 164zM319 711v45h-83q-2 -14 -3 -45h86z M805 621q29 -43 -14 -72t-72 14t14 72t72 -14z" />
<glyph unicode="&#xd7;" horiz-adv-x="829" d="M791 461l-154 -125l-213 223l-201 -211l-125 154l197 190l-213 226l119 118l223 -217l207 201l119 -119l-197 -207z" />
<glyph unicode="&#xd8;" d="M1397 815l-8 -57h-48q4 -29 5 -45h47l-4 -49h-41v-21q0 -106 -19 -180q-35 -137 -141 -244l-68 -67q-160 -160 -385 -160q-217 0 -289 35q-4 4 -15 10t-17 8l-80 -139l-111 55l90 156q-209 188 -209 475v67h-71l8 50h68q2 16 6 45h-74l-16 41l96 4q66 258 221 420l68 69 q158 162 376 162q135 0 244 -90l74 129l96 -68l-84 -147q10 -10 14 -17q63 -74 105 -151q74 -143 100 -295zM866 1290q-70 25 -147 25q-170 0 -299 -113q-147 -172 -178 -397l82 4q0 6 2 16v15q29 231 209 346q131 82 317 90zM1217 586v39l-3 37l-133 -3l9 50l118 2 q-4 29 -8 45l-110 -2l-17 41q59 4 117 6q-25 104 -78 209q-25 47 -35 63q-14 25 -45 55l-536 -940l47 -26q53 -33 256 -33q174 0 307 111q72 92 94 182q17 68 17 164zM952 1225l-18 12q-27 2 -55 2q-205 0 -353 -106q-164 -121 -164 -322l76 4l-8 -57l-72 -2v-45l76 2 l-4 -49h-65q18 -168 104 -277q2 2 483 838zM319 711v45h-83q-2 -14 -3 -45h86zM449 352q-100 117 -123 310q-25 2 -93 0q2 -240 166 -396z" />
<glyph unicode="&#xd9;" horiz-adv-x="1468" d="M829 1532l-75 -57l-269 303l158 110zM1458 188q0 -90 -63 -149q-74 -70 -174 -70q-145 0 -203 183q-143 -195 -375 -195q-125 0 -205 121q-74 113 -73 270q0 119 62 362.5t62 354.5q0 297 -213 297q-100 0 -133 -62q-12 -25 -12 -49q0 -37 22.5 -62.5t57.5 -21.5 q20 61 20 50l64 59q8 -119 -25 -152l-45 -45q-37 -37 -90 -37q-49 0 -87 47.5t-38 102.5q0 80 82 174q104 121 256 121q137 0 215 -103q68 -86 68 -208q0 -133 -19 -242l373 49q23 256 70 463l174 22q-55 -270 -72 -378q-33 -201 -39 -408q-6 -197 4 -305q12 -145 33 -199 q39 -98 137 -98q53 0 69.5 20.5t16.5 40.5q0 53 -65 54q-20 0 -25 -2q-8 -10 -18 -19l-27 31l39 49q16 14 35 27q10 6 43 8q98 3 98 -101zM981 940l-379 -61l-6 -32q-4 -22 -6 -34l387 68q2 10 3 29.5t1 29.5zM985 279q0 12 -2 18q-16 240 -14 377q0 88 6 151l-400 -69 l-51 -195q-25 -106 -24 -184q0 -115 39 -199q45 -98 123 -98q141 0 251 98q43 38 72 101z" />
<glyph unicode="&#xda;" horiz-adv-x="1468" d="M1079 1759l-268 -303l-76 57l187 357zM1458 188q0 -90 -63 -149q-74 -70 -174 -70q-145 0 -203 183q-143 -195 -375 -195q-125 0 -205 121q-74 113 -73 270q0 119 62 362.5t62 354.5q0 297 -213 297q-100 0 -133 -62q-12 -25 -12 -49q0 -37 22.5 -62.5t57.5 -21.5 q20 61 20 50l64 59q8 -119 -25 -152l-45 -45q-37 -37 -90 -37q-49 0 -87 47.5t-38 102.5q0 80 82 174q104 121 256 121q137 0 215 -103q68 -86 68 -208q0 -133 -19 -242l373 49q23 256 70 463l174 22q-55 -270 -72 -378q-33 -201 -39 -408q-6 -197 4 -305q12 -145 33 -199 q39 -98 137 -98q53 0 69.5 20.5t16.5 40.5q0 53 -65 54q-20 0 -25 -2q-8 -10 -18 -19l-27 31l39 49q16 14 35 27q10 6 43 8q98 3 98 -101zM981 940l-379 -61l-6 -32q-4 -22 -6 -34l387 68q2 10 3 29.5t1 29.5zM985 279q0 12 -2 18q-16 240 -14 377q0 88 6 151l-400 -69 l-51 -195q-25 -106 -24 -184q0 -115 39 -199q45 -98 123 -98q141 0 251 98q43 38 72 101z" />
<glyph unicode="&#xdb;" horiz-adv-x="1468" d="M1096 1569l-58 -49l-243 157l-242 -149l-57 53l231 258h131zM1458 188q0 -90 -63 -149q-74 -70 -174 -70q-145 0 -203 183q-143 -195 -375 -195q-125 0 -205 121q-74 113 -73 270q0 119 62 362.5t62 354.5q0 297 -213 297q-100 0 -133 -62q-12 -25 -12 -49 q0 -37 22.5 -62.5t57.5 -21.5q20 61 20 50l64 59q8 -119 -25 -152l-45 -45q-37 -37 -90 -37q-49 0 -87 47.5t-38 102.5q0 80 82 174q104 121 256 121q137 0 215 -103q68 -86 68 -208q0 -133 -19 -242l373 49q23 256 70 463l174 22q-55 -270 -72 -378q-33 -201 -39 -408 q-6 -197 4 -305q12 -145 33 -199q39 -98 137 -98q53 0 69.5 20.5t16.5 40.5q0 53 -65 54q-20 0 -25 -2q-8 -10 -18 -19l-27 31l39 49q16 14 35 27q10 6 43 8q98 3 98 -101zM981 940l-379 -61l-6 -32q-4 -22 -6 -34l387 68q2 10 3 29.5t1 29.5zM985 279q0 12 -2 18 q-16 240 -14 377q0 88 6 151l-400 -69l-51 -195q-25 -106 -24 -184q0 -115 39 -199q45 -98 123 -98q141 0 251 98q43 38 72 101z" />
<glyph unicode="&#xdc;" horiz-adv-x="1468" d="M1073 1638q0 -47 -34.5 -82.5t-86.5 -35.5q-47 0 -81.5 35.5t-34.5 82.5t34.5 83t81.5 36q51 0 86 -35t35 -84zM721 1638q0 -47 -35 -82.5t-82 -35.5q-49 0 -85 35.5t-36 82.5q0 49 36 84t85 35q47 0 82 -36t35 -83zM1458 188q0 -90 -63 -149q-74 -70 -174 -70 q-145 0 -203 183q-143 -195 -375 -195q-125 0 -205 121q-74 113 -73 270q0 119 62 362.5t62 354.5q0 297 -213 297q-100 0 -133 -62q-12 -25 -12 -49q0 -37 22.5 -62.5t57.5 -21.5q20 61 20 50l64 59q8 -119 -25 -152l-45 -45q-37 -37 -90 -37q-49 0 -87 47.5t-38 102.5 q0 80 82 174q104 121 256 121q137 0 215 -103q68 -86 68 -208q0 -133 -19 -242l373 49q23 256 70 463l174 22q-55 -270 -72 -378q-33 -201 -39 -408q-6 -197 4 -305q12 -145 33 -199q39 -98 137 -98q53 0 69.5 20.5t16.5 40.5q0 53 -65 54q-20 0 -25 -2q-8 -10 -18 -19 l-27 31l39 49q16 14 35 27q10 6 43 8q98 3 98 -101zM981 940l-379 -61l-6 -32q-4 -22 -6 -34l387 68q2 10 3 29.5t1 29.5zM985 279q0 12 -2 18q-16 240 -14 377q0 88 6 151l-400 -69l-51 -195q-25 -106 -24 -184q0 -115 39 -199q45 -98 123 -98q141 0 251 98q43 38 72 101z " />
<glyph unicode="&#xdd;" horiz-adv-x="1198" d="M895 1735l-268 -303l-76 57l186 356zM1155 1143l-4 -49h-53q-2 -10 -8.5 -32t-10.5 -34h56l4 -45h-74q-119 -299 -399 -328l10 -667l-160 12l25 653q-324 27 -435 338h-69l8 49h45q-4 14 -14 58h-47l4 41h35q-18 113 -15 233h135q-12 -131 2 -233l832 4q31 115 35 229 l73 4q2 -113 -22 -233h47zM1008 1094l-809 4q8 -41 14 -60l770 -8q15 29 25 64zM961 983q-197 2 -732 6q94 -231 369 -231q240 0 363 225z" />
<glyph unicode="&#xde;" horiz-adv-x="1021" d="M971 625q2 -268 -303 -377q-125 -45 -303 -55l-5 -201l-59 2l-2 391h-55l8 -397l-172 -13l14 1452l166 7l-10 -652h63q6 137 19 648l49 8l-4 -256q272 2 436 -156q156 -153 158 -401zM836 604q10 164 -108 286t-275 122q-41 0 -80 -11l-19 -716q135 16 234 55 q236 88 248 264zM313 741h-63l-2 -63h61q2 12 4 63zM309 637h-61l-2 -94h59zM303 502h-57l-2 -76h57z" />
<glyph unicode="&#xdf;" horiz-adv-x="985" d="M893 293q0 -117 -53 -199l-56 -86q-43 -66 -125 -65q-76 0 -143 47q-25 18 -121 106l107 146l106 -89q53 -44 111 -44h14q14 57 15 100q0 109 -91 190l-163 131q-90 82 -91 183q0 63 56 147l30 47q16 25 42 44l55 40q33 29 86 84q2 6 2 29q0 170 -142 170q-90 0 -153 -60 q-59 -137 -60 -456q0 -66 4.5 -177.5t4.5 -170.5t-6.5 -168t-6.5 -170l-143 -207q0 135 4 254q4 82 6 162l-119 -7l5 172l110 11q-6 209 -6 219q0 393 107 547l59 86q90 129 252 129q227 0 227 -250q0 -45 -43 -125l-37 -51q-12 -16 -96 -82q-47 -37 -84 -88q-4 -14 -4 -43 q0 -102 88 -183l164 -133q88 -81 88 -190z" />
<glyph unicode="&#xe0;" horiz-adv-x="958" d="M571 1118l-75 -57l-269 303l158 111zM911 113l-10 -109q-49 -45 -100 -45q-98 0 -119 172q-41 -57 -141.5 -104t-196.5 -47q-274 0 -274 258q0 96 73 200q104 147 295 148q147 0 240 -70q-43 348 -221 348q-86 0 -172 -78l-43 54q37 63 131 104q86 37 162 33 q158 -8 241 -172q74 -141 74 -346q0 -37 -3 -96.5t-3 -92.5q0 -172 -2 -116q2 -74 24 -74q6 0 20.5 13.5t24.5 19.5zM684 338q-78 102 -166 125l-14 -357q104 39 174 111q0 -2 6 121zM477 469q-25 4 -39 4l-16 -381q14 0 39 4q2 2 16 373zM397 475h-4q-18 0 -41 -8l-16 -371 q16 0 47 -4q8 193 14 383zM309 449q-135 -74 -135 -189q0 -125 123 -156q8 173 12 345z" />
<glyph unicode="&#xe1;" horiz-adv-x="958" d="M784 1341l-268 -303l-76 58l187 356zM911 113l-10 -109q-49 -45 -100 -45q-98 0 -119 172q-41 -57 -141.5 -104t-196.5 -47q-274 0 -274 258q0 96 73 200q104 147 295 148q147 0 240 -70q-43 348 -221 348q-86 0 -172 -78l-43 54q37 63 131 104q86 37 162 33 q158 -8 241 -172q74 -141 74 -346q0 -37 -3 -96.5t-3 -92.5q0 -172 -2 -116q2 -74 24 -74q6 0 20.5 13.5t24.5 19.5zM684 338q-78 102 -166 125l-14 -357q104 39 174 111q0 -2 6 121zM477 469q-25 4 -39 4l-16 -381q14 0 39 4q2 2 16 373zM397 475h-4q-18 0 -41 -8l-16 -371 q16 0 47 -4q8 193 14 383zM309 449q-135 -74 -135 -189q0 -125 123 -156q8 173 12 345z" />
<glyph unicode="&#xe2;" horiz-adv-x="958" d="M821 1071l-57 -49l-244 158l-241 -150l-58 53l232 258h131zM911 113l-10 -109q-49 -45 -100 -45q-98 0 -119 172q-41 -57 -141.5 -104t-196.5 -47q-274 0 -274 258q0 96 73 200q104 147 295 148q147 0 240 -70q-43 348 -221 348q-86 0 -172 -78l-43 54q37 63 131 104 q86 37 162 33q158 -8 241 -172q74 -141 74 -346q0 -37 -3 -96.5t-3 -92.5q0 -172 -2 -116q2 -74 24 -74q6 0 20.5 13.5t24.5 19.5zM684 338q-78 102 -166 125l-14 -357q104 39 174 111q0 -2 6 121zM477 469q-25 4 -39 4l-16 -381q14 0 39 4q2 2 16 373zM397 475h-4 q-18 0 -41 -8l-16 -371q16 0 47 -4q8 193 14 383zM309 449q-135 -74 -135 -189q0 -125 123 -156q8 173 12 345z" />
<glyph unicode="&#xe3;" horiz-adv-x="958" d="M842 1280l-54 -90q-94 -119 -210 -119q-47 0 -116 50t-118 50q-70 0 -125 -96l-57 33l49 84q78 133 184 133q47 0 116 -50t118 -50q84 0 159 92zM911 113l-10 -109q-49 -45 -100 -45q-98 0 -119 172q-41 -57 -141.5 -104t-196.5 -47q-274 0 -274 258q0 96 73 200 q104 147 295 148q147 0 240 -70q-43 348 -221 348q-86 0 -172 -78l-43 54q37 63 131 104q86 37 162 33q158 -8 241 -172q74 -141 74 -346q0 -37 -3 -96.5t-3 -92.5q0 -172 -2 -116q2 -74 24 -74q6 0 20.5 13.5t24.5 19.5zM684 338q-78 102 -166 125l-14 -357q104 39 174 111 q0 -2 6 121zM477 469q-25 4 -39 4l-16 -381q14 0 39 4q2 2 16 373zM397 475h-4q-18 0 -41 -8l-16 -371q16 0 47 -4q8 193 14 383zM309 449q-135 -74 -135 -189q0 -125 123 -156q8 173 12 345z" />
<glyph unicode="&#xe4;" horiz-adv-x="958" d="M813 1159q0 -47 -35 -83t-86 -36q-47 0 -82 36t-35 83t35 83t82 36q51 0 86 -35t35 -84zM461 1159q0 -47 -35 -83t-82 -36q-49 0 -85 36t-36 83q0 49 36 84t85 35q47 0 82 -36t35 -83zM911 113l-10 -109q-49 -45 -100 -45q-98 0 -119 172q-41 -57 -141.5 -104t-196.5 -47 q-274 0 -274 258q0 96 73 200q104 147 295 148q147 0 240 -70q-43 348 -221 348q-86 0 -172 -78l-43 54q37 63 131 104q86 37 162 33q158 -8 241 -172q74 -141 74 -346q0 -37 -3 -96.5t-3 -92.5q0 -172 -2 -116q2 -74 24 -74q6 0 20.5 13.5t24.5 19.5zM684 338 q-78 102 -166 125l-14 -357q104 39 174 111q0 -2 6 121zM477 469q-25 4 -39 4l-16 -381q14 0 39 4q2 2 16 373zM397 475h-4q-18 0 -41 -8l-16 -371q16 0 47 -4q8 193 14 383zM309 449q-135 -74 -135 -189q0 -125 123 -156q8 173 12 345z" />
<glyph unicode="&#xe5;" horiz-adv-x="958" d="M680 1309q10 -29 10 -62q0 -78 -60.5 -145.5t-137.5 -67.5q-68 0 -131.5 48t-84.5 106q-12 33 -12 67q0 80 51.5 151t126.5 71q70 0 141.5 -52.5t96.5 -115.5zM911 113l-10 -109q-49 -45 -100 -45q-98 0 -119 172q-41 -57 -141.5 -104t-196.5 -47q-274 0 -274 258 q0 96 73 200q104 147 295 148q147 0 240 -70q-43 348 -221 348q-86 0 -172 -78l-43 54q37 63 131 104q86 37 162 33q158 -8 241 -172q74 -141 74 -346q0 -37 -3 -96.5t-3 -92.5q0 -172 -2 -116q2 -74 24 -74q6 0 20.5 13.5t24.5 19.5zM455 1378q-41 0 -67 -36.5t-26 -79.5 q0 -23 7 -41q14 -37 56 -66t79 -20q37 8 63.5 40.5t26.5 69.5q0 45 -47 89t-92 44zM684 338q-78 102 -166 125l-14 -357q104 39 174 111q0 -2 6 121zM477 469q-25 4 -39 4l-16 -381q14 0 39 4q2 2 16 373zM397 475h-4q-18 0 -41 -8l-16 -371q16 0 47 -4q8 193 14 383z M309 449q-135 -74 -135 -189q0 -125 123 -156q8 173 12 345z" />
<glyph unicode="&#xe6;" horiz-adv-x="1626" d="M1571 45l-129 -35q-94 -18 -242 -18q-231 0 -356 160v-164l-178 -4q4 45 8 139q-41 -57 -137.5 -100t-192.5 -43q-274 0 -274 258q0 96 73 200q104 147 295 148q147 0 240 -70q-43 348 -221 348q-86 0 -172 -78l-43 54q39 63 131 104q86 37 162 33q199 -12 278 -260 q70 98 199 155q115 49 235 50q281 0 324 -283l-688 -16q-12 -33 -15 -54l697 21l-4 -49l-701 -21v-28q0 -178 107 -299q100 -115 245 -115q152 0 340 41zM1466 713q-63 123 -213 123q-238 0 -342 -158zM684 338q-78 102 -166 125l-14 -357q104 39 174 111q0 -2 6 121z M477 469q-25 4 -39 4l-16 -381q14 0 39 4q2 2 16 373zM397 475h-4q-18 0 -41 -8l-16 -371q16 0 47 -4q8 193 14 383zM309 449q-135 -74 -135 -189q0 -125 123 -156q8 173 12 345z" />
<glyph unicode="&#xe7;" horiz-adv-x="940" d="M586 1020q18 -39 -21 -57t-57 20q-18 39 20 57q40 19 58 -20zM412 977q0 -59 -60 -59q-59 0 -59 59t59 59q60 0 60 -59zM225 913q33 -37 -4 -69q-37 -33 -69 4q-33 37 4 70q36 32 69 -5zM502 225l-6 -45q-246 37 -246 252q0 90 39 182l39 -18q-35 -82 -35 -158 q0 -182 209 -213zM979 424q-98 -152 -205 -242q-229 -195 -393 -205l-25 -90q43 10 93 -4q125 -35 124 -170q0 -92 -63.5 -155.5t-155.5 -57.5q-94 6 -147 74l29 51q51 -35 104 -20q98 14 98 100q0 68 -51 90q-16 8 -39 8q-37 0 -74 -20l-38 29l36 182q-98 35 -160.5 133 t-62.5 211q0 215 174 395q160 166 334 166q66 0 119 -31q59 -37 59 -88q0 -70 -41 -108l-110 -105l-41 45q51 49 51 84q0 55 -121 56q-109 0 -194 -62q-82 -121 -82 -266q0 -115 72.5 -207t179.5 -92q147 0 319 147q78 66 162 189z" />
<glyph unicode="&#xe8;" horiz-adv-x="952" d="M571 1081l-75 -57l-269 303l158 111zM887 45l-129 -35q-94 -18 -242 -18q-193 0 -315 114q-141 131 -142 386q0 205 172 325q145 104 332 105q281 0 324 -283l-688 -16q-12 -33 -15 -54l697 21l-4 -49l-701 -21v-28q0 -178 107 -299q100 -115 245 -115q152 0 340 41z M782 713q-63 123 -213 123q-238 0 -342 -158z" />
<glyph unicode="&#xe9;" horiz-adv-x="952" d="M784 1305l-268 -304l-76 58l187 356zM887 45l-129 -35q-94 -18 -242 -18q-193 0 -315 114q-141 131 -142 386q0 205 172 325q145 104 332 105q281 0 324 -283l-688 -16q-12 -33 -15 -54l697 21l-4 -49l-701 -21v-28q0 -178 107 -299q100 -115 245 -115q152 0 340 41z M782 713q-63 123 -213 123q-238 0 -342 -158z" />
<glyph unicode="&#xea;" horiz-adv-x="952" d="M821 1022l-57 -49l-244 157l-241 -149l-58 53l232 258h131zM887 45l-129 -35q-94 -18 -242 -18q-193 0 -315 114q-141 131 -142 386q0 205 172 325q145 104 332 105q281 0 324 -283l-688 -16q-12 -33 -15 -54l697 21l-4 -49l-701 -21v-28q0 -178 107 -299 q100 -115 245 -115q152 0 340 41zM782 713q-63 123 -213 123q-238 0 -342 -158z" />
<glyph unicode="&#xeb;" horiz-adv-x="952" d="M813 1135q0 -47 -35 -83t-86 -36q-47 0 -82 35.5t-35 83.5q0 47 35 82.5t82 35.5q51 0 86 -34.5t35 -83.5zM461 1135q0 -47 -35 -83t-82 -36q-49 0 -85 35.5t-36 83.5q0 49 36 83.5t85 34.5q47 0 82 -35.5t35 -82.5zM887 45l-129 -35q-94 -18 -242 -18q-193 0 -315 114 q-141 131 -142 386q0 205 172 325q145 104 332 105q281 0 324 -283l-688 -16q-12 -33 -15 -54l697 21l-4 -49l-701 -21v-28q0 -178 107 -299q100 -115 245 -115q152 0 340 41zM782 713q-63 123 -213 123q-238 0 -342 -158z" />
<glyph unicode="&#xec;" horiz-adv-x="462" d="M301 1094l-76 -58l-268 303l158 111zM342 942l-4 -958l-33 4l-4 954h41zM264 -20l-127 12l-16 946h143v-958z" />
<glyph unicode="&#xed;" horiz-adv-x="462" d="M526 1317l-268 -303l-76 57l187 356zM342 942l-4 -958l-33 4l-4 954h41zM264 -20l-127 12l-16 946h143v-958z" />
<glyph unicode="&#xee;" horiz-adv-x="462" d="M551 1071l-57 -49l-244 158l-242 -150l-57 53l231 258h131zM342 942l-4 -958l-33 4l-4 954h41zM264 -20l-127 12l-16 946h143v-958z" />
<glyph unicode="&#xef;" horiz-adv-x="462" d="M530 1147q0 -47 -34.5 -83t-85.5 -36q-47 0 -82 36t-35 83t34.5 83t82.5 36q51 0 85.5 -35t34.5 -84zM178 1147q0 -47 -34.5 -83t-82.5 -36q-49 0 -84.5 36t-35.5 83q0 49 35.5 84t84.5 35q47 0 82 -36t35 -83zM342 942l-4 -958l-33 4l-4 954h41zM264 -20l-127 12 l-16 946h143v-958z" />
<glyph unicode="&#xf0;" horiz-adv-x="1056" d="M965 616q12 -362 -209 -583q-31 -31 -97.5 -55.5t-119.5 -24.5q-285 4 -389 176q-63 104 -54 256q8 137 119 227q102 84 236 84q68 0 143 -37q86 -41 143 -110q61 -76 78 -170q35 115 33 237q-2 231 -86 400l-41 -53q80 -164 80 -340h-41q0 158 -68 303l-86 -109 l-114 119l116 133q-35 45 -67 76l28 29q14 -12 66 -74l41 45q-68 82 -152 137q-72 47 -116 53q-20 2 -39 2q-154 0 -154 -170q0 -57 14.5 -80.5t44.5 -23.5q61 0 62 61q0 16 -33 66l33 24q84 -47 84 -133q0 -33 -31 -67.5t-78 -34.5q-104 0 -151 66.5t-47 173.5 q0 106 69.5 163.5t182.5 57.5q166 0 329 -156q25 -23 54 -55l81 92l105 -84l-98 -127q119 -197 129 -494zM709 289q0 102 -76 182q-68 70 -156 78q-104 10 -176 -49q-78 -61 -78 -168q0 -88 53 -162q72 -102 211 -98q98 2 142 20q80 76 80 197zM479 246q-57 0 -57 61 q0 57 61 58q57 0 58 -62q-1 -57 -62 -57z" />
<glyph unicode="&#xf1;" horiz-adv-x="819" d="M793 1231l-54 -90q-94 -119 -211 -119q-47 0 -115.5 50t-117.5 50q-70 0 -125 -96l-57 33l49 84q78 133 184 133q47 0 115.5 -50t118.5 -50q84 0 159 92zM750 575q2 -35 -9 -317q-8 -268 -12 -315l-158 2q29 512 25 553q-25 279 -145 278q-125 0 -175 -190l-2 -156l121 8 l4 -41l-125 -8l-2 -70l117 9l4 -41l-123 -8q0 -90 -4 -283l-143 -4l-10 276l-88 -6l-5 41l91 6l-2 68q-20 0 -78 -4l-4 41q82 6 79 4l-16 504l193 4l-2 -150q78 123 225 123q117 0 184 -119q52 -90 60 -205z" />
<glyph unicode="&#xf2;" horiz-adv-x="1036" d="M596 1069l-76 -57l-268 303l158 110zM973 332q-10 -100 -92 -193q-70 -76 -152 -112q-66 -29 -166 -29q-98 0 -201 27q-86 23 -180 131q-106 127 -106 256q2 150 45 225q53 92 137 176q127 106 293 121q88 -4 178 -60q80 -47 129 -112q119 -158 119 -365q0 -32 -4 -65z M842 365q8 39 8 77q0 70 -27 136q-39 94 -116.5 151t-171.5 57q-125 0 -205 -86zM829 326l-526 346q-16 -20 -29 -41l535 -352q8 14 20 47zM791 246l-533 350q-6 -12 -16 -41l520 -342q6 6 15.5 17.5t13.5 15.5zM731 186l-500 330q-12 -74 5 -137q31 -111 119.5 -181.5 t197.5 -70.5q96 0 178 59z" />
<glyph unicode="&#xf3;" horiz-adv-x="1036" d="M821 1317l-268 -303l-76 57l187 356zM973 332q-10 -100 -92 -193q-70 -76 -152 -112q-66 -29 -166 -29q-98 0 -201 27q-86 23 -180 131q-106 127 -106 256q2 150 45 225q53 92 137 176q127 106 293 121q88 -4 178 -60q80 -47 129 -112q119 -158 119 -365q0 -32 -4 -65z M842 365q8 39 8 77q0 70 -27 136q-39 94 -116.5 151t-171.5 57q-125 0 -205 -86zM829 326l-526 346q-16 -20 -29 -41l535 -352q8 14 20 47zM791 246l-533 350q-6 -12 -16 -41l520 -342q6 6 15.5 17.5t13.5 15.5zM731 186l-500 330q-12 -74 5 -137q31 -111 119.5 -181.5 t197.5 -70.5q96 0 178 59z" />
<glyph unicode="&#xf4;" horiz-adv-x="1036" d="M834 1010l-58 -49l-244 157l-241 -149l-58 53l232 258h131zM973 332q-10 -100 -92 -193q-70 -76 -152 -112q-66 -29 -166 -29q-98 0 -201 27q-86 23 -180 131q-106 127 -106 256q2 150 45 225q53 92 137 176q127 106 293 121q88 -4 178 -60q80 -47 129 -112 q119 -158 119 -365q0 -32 -4 -65zM842 365q8 39 8 77q0 70 -27 136q-39 94 -116.5 151t-171.5 57q-125 0 -205 -86zM829 326l-526 346q-16 -20 -29 -41l535 -352q8 14 20 47zM791 246l-533 350q-6 -12 -16 -41l520 -342q6 6 15.5 17.5t13.5 15.5zM731 186l-500 330 q-12 -74 5 -137q31 -111 119.5 -181.5t197.5 -70.5q96 0 178 59z" />
<glyph unicode="&#xf5;" horiz-adv-x="1036" d="M891 1219l-53 -91q-94 -119 -211 -118q-47 0 -116 50t-118 50q-70 0 -125 -96l-57 33l49 83q78 133 184 134q47 0 116 -50.5t118 -50.5q84 0 160 92zM973 332q-10 -100 -92 -193q-70 -76 -152 -112q-66 -29 -166 -29q-98 0 -201 27q-86 23 -180 131q-106 127 -106 256 q2 150 45 225q53 92 137 176q127 106 293 121q88 -4 178 -60q80 -47 129 -112q119 -158 119 -365q0 -32 -4 -65zM842 365q8 39 8 77q0 70 -27 136q-39 94 -116.5 151t-171.5 57q-125 0 -205 -86zM829 326l-526 346q-16 -20 -29 -41l535 -352q8 14 20 47zM791 246l-533 350 q-6 -12 -16 -41l520 -342q6 6 15.5 17.5t13.5 15.5zM731 186l-500 330q-12 -74 5 -137q31 -111 119.5 -181.5t197.5 -70.5q96 0 178 59z" />
<glyph unicode="&#xf6;" horiz-adv-x="1036" d="M813 1122q0 -47 -35 -82.5t-86 -35.5q-47 0 -82 35.5t-35 82.5t35 83t82 36q51 0 86 -35t35 -84zM461 1122q0 -47 -35 -82.5t-82 -35.5q-49 0 -85 35.5t-36 82.5q0 49 36 84t85 35q47 0 82 -36t35 -83zM973 332q-10 -100 -92 -193q-70 -76 -152 -112q-66 -29 -166 -29 q-98 0 -201 27q-86 23 -180 131q-106 127 -106 256q2 150 45 225q53 92 137 176q127 106 293 121q88 -4 178 -60q80 -47 129 -112q119 -158 119 -365q0 -32 -4 -65zM842 365q8 39 8 77q0 70 -27 136q-39 94 -116.5 151t-171.5 57q-125 0 -205 -86zM829 326l-526 346 q-16 -20 -29 -41l535 -352q8 14 20 47zM791 246l-533 350q-6 -12 -16 -41l520 -342q6 6 15.5 17.5t13.5 15.5zM731 186l-500 330q-12 -74 5 -137q31 -111 119.5 -181.5t197.5 -70.5q96 0 178 59z" />
<glyph unicode="&#xf7;" horiz-adv-x="829" d="M557 965q0 -51 -37 -88t-88 -37t-88 36.5t-37 88.5q0 51 37 88t88 37t88 -37t37 -88zM762 610l-684 -18l20 196l664 -10v-168zM565 391q0 -51 -36.5 -88t-88.5 -37q-51 0 -88 37t-37 88t37 88t88 37t88 -37t37 -88z" />
<glyph unicode="&#xf8;" horiz-adv-x="1036" d="M973 332q-10 -100 -92 -193q-70 -76 -152 -112q-66 -29 -166 -29q-98 0 -201 27q-2 0 -4 2h-4l-94 -162l-110 55l98 170q-174 150 -172 322q2 150 45 225q53 92 137 176q127 106 293 121q78 -2 160 -47l98 168l96 -68l-98 -170q29 -27 51 -55q119 -156 119 -363 q0 -34 -4 -67zM842 365q8 39 8 77q0 156 -109 258l-112 -196zM641 766q-53 20 -109 20q-123 0 -202 -86l196 -129zM829 326l-221 145l-22 -45q215 -139 223 -147q8 14 20 47zM506 537q-55 39 -203 135q-16 -20 -29 -41l207 -137q21 29 25 43zM791 246l-226 147l-20 -37 l217 -143q6 6 15.5 17.5t13.5 15.5zM463 461l-205 135q-6 -12 -16 -41l200 -131zM731 186l-207 138l-98 -170q61 -27 127 -27q96 0 178 59zM422 389l-191 127q-14 -74 5 -137q23 -86 90 -156z" />
<glyph unicode="&#xf9;" horiz-adv-x="804" d="M510 1069l-76 -57l-268 303l158 110zM743 971l-24 -977h-105l-6 178q-104 -195 -295 -195q-188 0 -188 238q0 94 49 243.5t49 248.5q0 154 -88 153q-41 0 -41 -33q0 -39 21 -39q18 0 30 11l31 -35l-55 -55q-27 -20 -66 -21q-29 0 -50 32t-21 66q0 57 34 107q57 80 189 80 q70 0 110 -62q35 -55 35 -137q0 -98 -43 -245.5t-43 -241.5t19 -131q25 -49 96 -50q53 0 116.5 71t102.5 171q-4 164 -22 604zM106 487q23 -31 -8 -53q-31 -23 -53 8q-23 31 8 54q30 22 53 -9zM82 279q0 -47 -47 -48q-47 0 -47 48q0 47 47 47t47 -47zM90 131q25 -35 -12 -61 q-35 -25 -62 12q-25 35 13 61q34 25 61 -12z" />
<glyph unicode="&#xfa;" horiz-adv-x="804" d="M723 1317l-268 -303l-76 57l186 356zM743 971l-24 -977h-105l-6 178q-104 -195 -295 -195q-188 0 -188 238q0 94 49 243.5t49 248.5q0 154 -88 153q-41 0 -41 -33q0 -39 21 -39q18 0 30 11l31 -35l-55 -55q-27 -20 -66 -21q-29 0 -50 32t-21 66q0 57 34 107q57 80 189 80 q70 0 110 -62q35 -55 35 -137q0 -98 -43 -245.5t-43 -241.5t19 -131q25 -49 96 -50q53 0 116.5 71t102.5 171q-4 164 -22 604zM106 487q23 -31 -8 -53q-31 -23 -53 8q-23 31 8 54q30 22 53 -9zM82 279q0 -47 -47 -48q-47 0 -47 48q0 47 47 47t47 -47zM90 131q25 -35 -12 -61 q-35 -25 -62 12q-25 35 13 61q34 25 61 -12z" />
<glyph unicode="&#xfb;" horiz-adv-x="804" d="M735 1108l-57 -49l-244 158l-241 -150l-58 53l232 258h131zM743 971l-24 -977h-105l-6 178q-104 -195 -295 -195q-188 0 -188 238q0 94 49 243.5t49 248.5q0 154 -88 153q-41 0 -41 -33q0 -39 21 -39q18 0 30 11l31 -35l-55 -55q-27 -20 -66 -21q-29 0 -50 32t-21 66 q0 57 34 107q57 80 189 80q70 0 110 -62q35 -55 35 -137q0 -98 -43 -245.5t-43 -241.5t19 -131q25 -49 96 -50q53 0 116.5 71t102.5 171q-4 164 -22 604zM106 487q23 -31 -8 -53q-31 -23 -53 8q-23 31 8 54q30 22 53 -9zM82 279q0 -47 -47 -48q-47 0 -47 48q0 47 47 47 t47 -47zM90 131q25 -35 -12 -61q-35 -25 -62 12q-25 35 13 61q34 25 61 -12z" />
<glyph unicode="&#xfc;" horiz-adv-x="804" d="M715 1184q0 -47 -35 -83t-86 -36q-47 0 -82 36t-35 83t35 83t82 36q51 0 86 -35t35 -84zM362 1184q0 -47 -34.5 -83t-81.5 -36q-49 0 -85 36t-36 83q0 49 36 84t85 35q47 0 81.5 -36t34.5 -83zM743 971l-24 -977h-105l-6 178q-104 -195 -295 -195q-188 0 -188 238 q0 94 49 243.5t49 248.5q0 154 -88 153q-41 0 -41 -33q0 -39 21 -39q18 0 30 11l31 -35l-55 -55q-27 -20 -66 -21q-29 0 -50 32t-21 66q0 57 34 107q57 80 189 80q70 0 110 -62q35 -55 35 -137q0 -98 -43 -245.5t-43 -241.5t19 -131q25 -49 96 -50q53 0 116.5 71t102.5 171 q-4 164 -22 604zM106 487q23 -31 -8 -53q-31 -23 -53 8q-23 31 8 54q30 22 53 -9zM82 279q0 -47 -47 -48q-47 0 -47 48q0 47 47 47t47 -47zM90 131q25 -35 -12 -61q-35 -25 -62 12q-25 35 13 61q34 25 61 -12z" />
<glyph unicode="&#xfd;" horiz-adv-x="823" d="M723 1255l-268 -303l-76 58l186 356zM852 909q-37 -117 -98 -366q-59 -240 -97 -355q-123 -387 -307 -567q-104 -102 -246 -102q-88 0 -135 67q-41 59 -41 152q0 72 43 145q66 109 193 109q39 0 77 -38t38 -77q0 -45 -23 -86l-74 -76l-37 27q16 37 17 63q0 25 -15.5 47.5 t-40.5 22.5t-43 -24.5t-18 -40.5q0 -174 131 -175q68 0 127 72q78 92 148 287l-220 385l-65 -43l-21 33l68 43l-20 34l-64 -40l-20 32q33 23 65 41l-22 41l-64 -41l-20 33l63 41q2 2 -162 289l178 98l136 -291l137 88l20 -32l-141 -91q6 -10 20 -41l142 91l20 -33l-145 -92 l18 -37l144 92l20 -33l-147 -94l141 -299q35 115 100 381q68 276 101 387z" />
<glyph unicode="&#xfe;" horiz-adv-x="956" d="M872 481q0 -186 -107.5 -304t-252.5 -124q-154 -6 -274 88l6 -362l125 -8l-4 -41l-121 8l2 -80l116 -8l-4 -41l-112 8l4 -160l-170 17l2 155l-62 4l5 41l57 -4l2 80l-57 4l4 41l53 -4l16 1612l121 -8l2 -557q80 57 228 63q164 6 288 -110q133 -124 133 -310zM733 485 q0 125 -83 218.5t-191 103.5q-129 12 -234 -55q6 -250 8 -500q125 -98 238 -90q115 8 191 110q71 96 71 213zM586 643q0 -59 -60 -59q-59 0 -59 59t59 59q60 0 60 -59zM655 500q20 -43 -22 -64q-45 -20 -64 23q-20 45 23 63q43 19 63 -22zM594 340q25 -45 -23 -70 q-27 -12 -51 3.5t-24 43.5q0 51 49 52q33 0 49 -29z" />
<glyph unicode="&#xff;" horiz-adv-x="823" d="M727 1147q0 -47 -35 -83t-86 -36q-47 0 -82 36t-35 83t35 83t82 36q51 0 86 -35t35 -84zM375 1147q0 -47 -35 -83t-82 -36q-49 0 -85 36t-36 83q0 49 36 84t85 35q47 0 82 -36t35 -83zM852 909q-37 -117 -98 -366q-59 -240 -97 -355q-123 -387 -307 -567 q-104 -102 -246 -102q-88 0 -135 67q-41 59 -41 152q0 72 43 145q66 109 193 109q39 0 77 -38t38 -77q0 -45 -23 -86l-74 -76l-37 27q16 37 17 63q0 25 -15.5 47.5t-40.5 22.5t-43 -24.5t-18 -40.5q0 -174 131 -175q68 0 127 72q78 92 148 287l-220 385l-65 -43l-21 33 l68 43l-20 34l-64 -40l-20 32q33 23 65 41l-22 41l-64 -41l-20 33l63 41q2 2 -162 289l178 98l136 -291l137 88l20 -32l-141 -91q6 -10 20 -41l142 91l20 -33l-145 -92l18 -37l144 92l20 -33l-147 -94l141 -299q35 115 100 381q68 276 101 387z" />
<glyph unicode="&#x152;" horiz-adv-x="2334" d="M1509 1350q-119 -82 -118 -211q0 -90 63 -187l-33 -20q-72 109 -71 209q0 150 139 245zM1618 279l-25 -33q-133 113 -133 286q0 96 37 185l37 -17q-33 -80 -33 -165q0 -156 117 -256zM2263 434q0 -170 -96 -264l-103 -100q-106 -104 -317 -105q-164 0 -292 68.5 t-179 181.5q-20 43 -27 76q-31 -41 -61 -72l-68 -67q-160 -160 -385 -160q-221 0 -289 35q-152 78 -239 213q-102 154 -103 352v67h-71l8 50h68q2 16 6 45h-74l-16 41l96 4q66 258 221 420l68 69q158 162 376 162q102 0 183 -47q74 -43 161 -146q63 -74 105 -151 q80 -154 104 -354q2 4 9 8l102 100q41 41 92 68q-86 74 -86 200q0 74 60 136l100 102q82 84 231 84q98 0 205 -68q115 -72 115 -153q0 -37 -23 -82l-102 -105l-33 23q16 37 16 63q0 70 -100 127q-92 51 -178 52q-80 0 -139 -27q-8 -33 -9 -51q0 -145 136 -211 q72 -35 299 -78l-136 -135q-201 33 -237 33q-133 0 -227 -62q-63 -98 -64 -229q0 -131 45 -211q47 -104 165 -168t267 -64q143 0 232 52q43 74 43 176q0 61 -37 103t-98 42h-9q-2 -6 -2 -16q0 -41 72 -80l-98 -94q-84 43 -84 110q0 61 51 111l70 65q47 45 100 45 q80 0 128 -53t48 -131zM866 1290q-70 25 -147 25q-170 0 -299 -113q-147 -172 -178 -397l82 4q0 6 2 16v15q29 231 209 346q131 82 317 90zM1217 586v39l-3 37l-133 -3l9 50l118 2q-4 29 -8 45l-110 -2l-17 41q59 4 117 6q-25 104 -78 209q-25 49 -35 63q-14 25 -45 55 q-4 4 -41 56q-27 37 -57 53q-27 2 -55 2q-205 0 -353 -106q-164 -121 -164 -322l76 4l-8 -57l-72 -2v-45l76 2l-4 -49h-65q18 -184 122 -297l-26 -27q-113 121 -135 322q-25 2 -93 0q2 -330 310 -500q59 -33 256 -33q174 0 307 111q72 92 94 182q17 68 17 164zM319 711v45 h-83q-2 -14 -3 -45h86zM805 621q29 -43 -14 -72t-72 14t14 72t72 -14z" />
<glyph unicode="&#x153;" horiz-adv-x="1773" d="M1698 45l-129 -35q-94 -18 -242 -18q-281 0 -395 219q-74 -127 -203 -184q-63 -29 -166 -29q-98 0 -201 27q-86 23 -180 131q-106 127 -106 256q2 150 45 225q53 92 137 176q127 106 293 121q88 -4 178 -60q80 -47 129 -112q35 -47 55 -90q61 121 203 190q123 59 258 60 q281 0 324 -283l-688 -16q-12 -33 -15 -54l697 21l-4 -49l-701 -21v-28q0 -178 107 -299q100 -115 245 -115q152 0 340 41zM1593 713q-63 123 -213 123q-238 0 -342 -158zM842 365q8 39 8 77q0 70 -27 136q-39 94 -116.5 151t-171.5 57q-125 0 -205 -86zM829 326l-526 346 q-16 -20 -29 -41l535 -352q8 14 20 47zM791 246l-533 350q-6 -12 -16 -41l520 -342q6 6 15.5 17.5t13.5 15.5zM731 186l-500 330q-12 -74 5 -137q31 -111 119.5 -181.5t197.5 -70.5q96 0 178 59z" />
<glyph unicode="&#x178;" horiz-adv-x="1198" d="M901 1614q0 -47 -35 -83t-86 -36q-47 0 -81.5 36t-34.5 83t34.5 83t81.5 36q51 0 86 -35t35 -84zM549 1614q0 -47 -35 -83t-82 -36q-49 0 -85 36t-36 83q0 49 36 84t85 35q47 0 82 -36t35 -83zM1155 1143l-4 -49h-53q-2 -10 -8.5 -32t-10.5 -34h56l4 -45h-74 q-119 -299 -399 -328l10 -667l-160 12l25 653q-324 27 -435 338h-69l8 49h45q-4 14 -14 58h-47l4 41h35q-18 113 -15 233h135q-12 -131 2 -233l832 4q31 115 35 229l73 4q2 -113 -22 -233h47zM1008 1094l-809 4q8 -41 14 -60l770 -8q15 29 25 64zM961 983q-197 2 -732 6 q94 -231 369 -231q240 0 363 225z" />
<glyph unicode="&#x2c6;" horiz-adv-x="741" d="M666 1139l-58 -49l-243 157l-242 -149l-57 53l231 258h131z" />
<glyph unicode="&#x2dc;" horiz-adv-x="854" d="M774 1348l-53 -91q-94 -119 -211 -118q-47 0 -115.5 50t-118.5 50q-70 0 -124 -96l-58 33l49 84q78 133 185 133q47 0 115.5 -50.5t117.5 -50.5q84 0 160 92z" />
<glyph unicode="&#x2000;" horiz-adv-x="970" />
<glyph unicode="&#x2001;" horiz-adv-x="1943" />
<glyph unicode="&#x2002;" horiz-adv-x="970" />
<glyph unicode="&#x2003;" horiz-adv-x="1943" />
<glyph unicode="&#x2004;" horiz-adv-x="647" />
<glyph unicode="&#x2005;" horiz-adv-x="485" />
<glyph unicode="&#x2006;" horiz-adv-x="323" />
<glyph unicode="&#x2007;" horiz-adv-x="323" />
<glyph unicode="&#x2008;" horiz-adv-x="241" />
<glyph unicode="&#x2009;" horiz-adv-x="387" />
<glyph unicode="&#x200a;" horiz-adv-x="106" />
<glyph unicode="&#x2010;" horiz-adv-x="829" d="M729 778l-4 -209l-623 -18l25 237z" />
<glyph unicode="&#x2011;" horiz-adv-x="829" d="M729 778l-4 -209l-623 -18l25 237z" />
<glyph unicode="&#x2012;" horiz-adv-x="829" d="M729 778l-4 -209l-623 -18l25 237z" />
<glyph unicode="&#x2013;" horiz-adv-x="780" d="M737 600l-702 -18l18 200l682 -10z" />
<glyph unicode="&#x2014;" horiz-adv-x="1566" d="M1524 600l-1489 -18l18 200l1469 -10z" />
<glyph unicode="&#x2018;" horiz-adv-x="532" d="M453 1012l-86 -45l-271 379l162 94z" />
<glyph unicode="&#x2019;" horiz-adv-x="532" d="M473 1346l-270 -379l-86 45l194 428z" />
<glyph unicode="&#x201a;" horiz-adv-x="624" d="M453 41q0 -147 -187 -334l-69 -69l-56 57q137 141 138 285q0 109 -70 145l156 123q88 -57 88 -207z" />
<glyph unicode="&#x201c;" horiz-adv-x="835" d="M735 1012l-86 -45l-270 379l162 94zM453 1012l-86 -45l-271 379l162 94z" />
<glyph unicode="&#x201d;" horiz-adv-x="835" d="M756 1346l-271 -379l-86 45l195 428zM473 1346l-270 -379l-86 45l194 428z" />
<glyph unicode="&#x201e;" horiz-adv-x="872" d="M748 41q0 -147 -187 -334l-69 -69l-56 57q137 141 137 285q0 109 -69 145l155 123q89 -57 89 -207zM453 41q0 -147 -187 -334l-69 -69l-56 57q137 141 138 285q0 109 -70 145l156 123q88 -57 88 -207z" />
<glyph unicode="&#x2022;" horiz-adv-x="860" d="M733 539q-6 -66 -63.5 -129.5t-120.5 -81.5q-35 -10 -90 -11q-86 0 -139.5 15.5t-116.5 87.5q-72 86 -72 170q2 104 33 155.5t88 114.5q84 72 197 80q125 -2 205.5 -113.5t80.5 -246.5q0 -21 -2 -41z" />
<glyph unicode="&#x2026;" horiz-adv-x="1556" d="M1427 117q0 -57 -40.5 -98.5t-98.5 -41.5q-57 0 -98 41t-41 99q0 57 41 98t98 41t98 -41t41 -98zM928 117q0 -57 -41 -98.5t-99 -41.5q-57 0 -98 41t-41 99q0 57 41 98t98 41t98.5 -41t41.5 -98zM424 117q0 -57 -41 -98.5t-98 -41.5t-98.5 41t-41.5 99q0 57 41 98t99 41 q57 0 98 -41t41 -98z" />
<glyph unicode="&#x202f;" horiz-adv-x="387" />
<glyph unicode="&#x2039;" horiz-adv-x="614" d="M475 182l-63 -139l-271 352v78l256 344l74 -121l-215 -262z" />
<glyph unicode="&#x203a;" horiz-adv-x="614" d="M504 395l-271 -352l-63 139l219 252l-215 262l74 121l256 -344v-78z" />
<glyph unicode="&#x205f;" horiz-adv-x="485" />
<glyph unicode="&#x2122;" horiz-adv-x="1384" d="M1309 889q0 -90 -56.5 -139.5t-113.5 -49.5q-43 0 -80 52.5t-39 103.5q-6 113 67.5 238t73.5 176q0 109 -82 108q-29 0 -55 -22q-57 -74 -57 -172l-52 -54q-4 10 -18 95q-23 131 -119 131q-59 0 -59 -68q0 -104 29 -145l59 -111q29 -70 29 -141q0 -82 -62.5 -140.5 t-138.5 -58.5q-94 0 -94 101q0 49 41 94q31 33 86 41q49 0 49 -58q0 -20 -21 -43l-30 -32l-23 16q25 31 25 43q0 29 -31 25q-12 -2 -23.5 -20.5t-11.5 -31.5q0 -76 66 -75q45 0 80 24q27 37 26 80q0 68 -37 135l-65 105q-41 70 -41 174q0 66 44 116t113 50q100 0 154 -111 q39 125 174 125q51 0 88 -40t37 -97q0 -92 -79 -226.5t-77 -197.5q2 -41 28 -84t56 -43q18 0 58 14q20 37 20 78t-20 41q-16 0 -17 -23l4 -28l-30 -27l-21 31q0 43 21.5 78t58.5 35q66 0 66 -72zM1051 958l-252 3v20l252 -2v-21zM1055 920h-254v22l254 -4v-18zM1051 881 l-252 2v22l252 -4v-20zM567 1430l-6 -95l-465 -6l-10 88zM432 1303l-149 -9l8 -491l-23 2l-4 262l-41 2l4 25l35 -2v26h-41v27h39v26l-39 -2v23l39 -2q0 55 -2 121l172 12zM391 709h-74l-12 559l80 8z" />
<glyph unicode="&#xe000;" horiz-adv-x="920" d="M0 920h920v-920h-920v920z" />
<glyph unicode="&#xfb01;" horiz-adv-x="1210" d="M1162 1204q0 -74 -52.5 -126t-125.5 -52q-74 0 -126.5 52t-52.5 126t52.5 126t126.5 52t126 -52t52 -126zM1090 942l-4 -958l-33 4l-4 954h41zM1012 -20l-127 12l-16 946h143v-958zM1059 1204q0 31 -22.5 53.5t-52.5 22.5q-31 0 -53.5 -22.5t-22.5 -53.5t22.5 -53.5 t53.5 -22.5t53 22.5t22 53.5zM315 1507q11 -17 12 -32q0 -22 -26 -39q-17 -11 -32 -12q-22 0 -40 26q-11 17 -11 32q0 22 26 40q17 11 32 11q22 0 39 -26zM184 1346q11 -17 12 -33q0 -22 -26 -39q-17 -11 -32 -12q-22 0 -40 26q-11 17 -11 32q0 22 26 40q17 11 32 11 q22 1 39 -25zM96 1163q11 -17 12 -32q0 -22 -26 -39q-17 -11 -32 -12q-22 0 -40 26q-11 17 -11 32q0 22 26 40q17 11 32 11q22 0 39 -26zM770 1243q0 -139 -74 -221q-59 -68 -133 -68q-55 0 -101 38t-46 79q0 63 30 92l68 64l29 -29q-31 -31 -31 -59q0 -29 24.5 -56.5 t61.5 -27.5q47 0 47 104q0 59 -41 101q-49 47 -139 47q-68 0 -129 -37q-49 -82 -49 -178t32 -203l60 -178q16 -53 31 -152q59 0 116.5 8t108.5 8q31 0 74 -14l-103 -98q-43 6 -41 6q-6 0 -147 -12q4 -74 4 -109q0 -229 -113 -340l-108 -106l-29 28q121 121 121 318 q0 109 -12 203q-96 4 -250 43l102 94q39 -10 125 -23q-4 20 -8 33l-60 184q-33 111 -32 209q0 170 92 262l108 109q70 70 191 70q106 0 168 -62q53 -53 53 -127z" />
<glyph unicode="&#xfb02;" horiz-adv-x="1300" d="M1305 61l-51 -57q-41 -45 -76 -45q-68 0 -141 119q-51 84 -82 176q-31 -53 -105 -170q-18 -29 -55 -80l-45 35q86 129 172 336q-45 197 -45 399q0 213 47 408q63 266 182 266q74 0 82 -123q4 -53 4 -108q0 -446 -157 -814q68 -258 200 -319q20 -12 41 25zM1080 1249 q0 8 -6 47q-84 -168 -84 -514q0 -84 10 -192q84 285 84 553q0 55 -4 106zM315 1507q11 -17 12 -32q0 -22 -26 -39q-17 -11 -32 -12q-22 0 -40 26q-11 17 -11 32q0 22 26 40q17 11 32 11q22 0 39 -26zM184 1346q11 -17 12 -33q0 -22 -26 -39q-17 -11 -32 -12q-22 0 -40 26 q-11 17 -11 32q0 22 26 40q17 11 32 11q22 1 39 -25zM96 1163q11 -17 12 -32q0 -22 -26 -39q-17 -11 -32 -12q-22 0 -40 26q-11 17 -11 32q0 22 26 40q17 11 32 11q22 0 39 -26zM770 1243q0 -139 -74 -221q-59 -68 -133 -68q-55 0 -101 38t-46 79q0 63 30 92l68 64l29 -29 q-31 -31 -31 -59q0 -29 24.5 -56.5t61.5 -27.5q47 0 47 104q0 59 -41 101q-49 47 -139 47q-68 0 -129 -37q-49 -82 -49 -178t32 -203l60 -178q16 -53 31 -152q59 0 116.5 8t108.5 8q31 0 74 -14l-103 -98q-43 6 -41 6q-6 0 -147 -12q4 -74 4 -109q0 -229 -113 -340 l-108 -106l-29 28q121 121 121 318q0 109 -12 203q-96 4 -250 43l102 94q39 -10 125 -23q-4 20 -8 33l-60 184q-33 111 -32 209q0 170 92 262l108 109q70 70 191 70q106 0 168 -62q53 -53 53 -127z" />
<glyph unicode="&#xfb03;" horiz-adv-x="1957" d="M1909 1204q0 -74 -52.5 -126t-125.5 -52q-74 0 -126.5 52t-52.5 126t52.5 126t126.5 52t126 -52t52 -126zM1837 942l-4 -958l-33 4l-4 954h41zM1759 -20l-127 12l-16 946h143v-958zM1806 1204q0 31 -22.5 53.5t-52.5 22.5q-31 0 -53.5 -22.5t-22.5 -53.5t22.5 -53.5 t53.5 -22.5t53 22.5t22 53.5zM1063 1507q11 -17 12 -32q0 -22 -26 -39q-17 -11 -32 -12q-22 0 -40 26q-11 17 -11 32q0 22 26 40q17 11 32 11q22 0 39 -26zM932 1346q11 -17 12 -33q0 -22 -26 -39q-17 -11 -32 -12q-22 0 -40 26q-11 17 -11 32q0 22 26 40q17 11 32 11 q22 1 39 -25zM844 1163q11 -17 12 -32q0 -22 -26 -39q-17 -11 -32 -12q-22 0 -40 26q-11 17 -11 32q0 22 26 40q17 11 32 11q22 0 39 -26zM1518 1243q0 -139 -74 -221q-59 -68 -133 -68q-55 0 -101 38t-46 79q0 63 30 92l68 64l29 -29q-31 -31 -31 -59q0 -29 24.5 -56.5 t61.5 -27.5q47 0 47 104q0 59 -41 101q-49 47 -139 47q-68 0 -129 -37q-49 -82 -49 -178t32 -203l60 -178q16 -53 31 -152q59 0 116.5 8t108.5 8q31 0 74 -14l-103 -98q-43 6 -41 6q-6 0 -147 -12q4 -74 4 -109q0 -229 -113 -340l-108 -106l-29 28q121 121 121 318 q0 109 -12 203q-96 4 -250 43l102 94q39 -10 125 -23q-4 20 -8 33l-60 184q-33 111 -32 209q0 170 92 262l108 109q70 70 191 70q106 0 168 -62q53 -53 53 -127zM315 1507q11 -17 12 -32q0 -22 -26 -39q-17 -11 -32 -12q-22 0 -40 26q-11 17 -11 32q0 22 26 40q17 11 32 11 q22 0 39 -26zM184 1346q11 -17 12 -33q0 -22 -26 -39q-17 -11 -32 -12q-22 0 -40 26q-11 17 -11 32q0 22 26 40q17 11 32 11q22 1 39 -25zM96 1163q11 -17 12 -32q0 -22 -26 -39q-17 -11 -32 -12q-22 0 -40 26q-11 17 -11 32q0 22 26 40q17 11 32 11q22 0 39 -26zM770 1243 q0 -139 -74 -221q-59 -68 -133 -68q-55 0 -101 38t-46 79q0 63 30 92l68 64l29 -29q-31 -31 -31 -59q0 -29 24.5 -56.5t61.5 -27.5q47 0 47 104q0 59 -41 101q-49 47 -139 47q-68 0 -129 -37q-49 -82 -49 -178t32 -203l60 -178q16 -53 31 -152q59 0 116.5 8t108.5 8 q31 0 74 -14l-103 -98q-43 6 -41 6q-6 0 -147 -12q4 -74 4 -109q0 -229 -113 -340l-108 -106l-29 28q121 121 121 318q0 109 -12 203q-96 4 -250 43l102 94q39 -10 125 -23q-4 20 -8 33l-60 184q-33 111 -32 209q0 170 92 262l108 109q70 70 191 70q106 0 168 -62 q53 -53 53 -127z" />
<glyph unicode="&#xfb04;" horiz-adv-x="2048" d="M2052 61l-51 -57q-41 -45 -76 -45q-68 0 -141 119q-51 84 -82 176q-31 -53 -105 -170q-18 -29 -55 -80l-45 35q86 129 172 336q-45 197 -45 399q0 213 47 408q63 266 182 266q74 0 82 -123q4 -53 4 -108q0 -446 -157 -814q68 -258 200 -319q20 -12 41 25zM1827 1249 q0 8 -6 47q-84 -168 -84 -514q0 -84 10 -192q84 285 84 553q0 55 -4 106zM1063 1507q11 -17 12 -32q0 -22 -26 -39q-17 -11 -32 -12q-22 0 -40 26q-11 17 -11 32q0 22 26 40q17 11 32 11q22 0 39 -26zM932 1346q11 -17 12 -33q0 -22 -26 -39q-17 -11 -32 -12q-22 0 -40 26 q-11 17 -11 32q0 22 26 40q17 11 32 11q22 1 39 -25zM844 1163q11 -17 12 -32q0 -22 -26 -39q-17 -11 -32 -12q-22 0 -40 26q-11 17 -11 32q0 22 26 40q17 11 32 11q22 0 39 -26zM1518 1243q0 -139 -74 -221q-59 -68 -133 -68q-55 0 -101 38t-46 79q0 63 30 92l68 64l29 -29 q-31 -31 -31 -59q0 -29 24.5 -56.5t61.5 -27.5q47 0 47 104q0 59 -41 101q-49 47 -139 47q-68 0 -129 -37q-49 -82 -49 -178t32 -203l60 -178q16 -53 31 -152q59 0 116.5 8t108.5 8q31 0 74 -14l-103 -98q-43 6 -41 6q-6 0 -147 -12q4 -74 4 -109q0 -229 -113 -340 l-108 -106l-29 28q121 121 121 318q0 109 -12 203q-96 4 -250 43l102 94q39 -10 125 -23q-4 20 -8 33l-60 184q-33 111 -32 209q0 170 92 262l108 109q70 70 191 70q106 0 168 -62q53 -53 53 -127zM315 1507q11 -17 12 -32q0 -22 -26 -39q-17 -11 -32 -12q-22 0 -40 26 q-11 17 -11 32q0 22 26 40q17 11 32 11q22 0 39 -26zM184 1346q11 -17 12 -33q0 -22 -26 -39q-17 -11 -32 -12q-22 0 -40 26q-11 17 -11 32q0 22 26 40q17 11 32 11q22 1 39 -25zM96 1163q11 -17 12 -32q0 -22 -26 -39q-17 -11 -32 -12q-22 0 -40 26q-11 17 -11 32 q0 22 26 40q17 11 32 11q22 0 39 -26zM770 1243q0 -139 -74 -221q-59 -68 -133 -68q-55 0 -101 38t-46 79q0 63 30 92l68 64l29 -29q-31 -31 -31 -59q0 -29 24.5 -56.5t61.5 -27.5q47 0 47 104q0 59 -41 101q-49 47 -139 47q-68 0 -129 -37q-49 -82 -49 -178t32 -203 l60 -178q16 -53 31 -152q59 0 116.5 8t108.5 8q31 0 74 -14l-103 -98q-43 6 -41 6q-6 0 -147 -12q4 -74 4 -109q0 -229 -113 -340l-108 -106l-29 28q121 121 121 318q0 109 -12 203q-96 4 -250 43l102 94q39 -10 125 -23q-4 20 -8 33l-60 184q-33 111 -32 209q0 170 92 262 l108 109q70 70 191 70q106 0 168 -62q53 -53 53 -127z" />
</font>
</defs>
</svg>
